<?xml version="1.0" encoding="UTF-8"?>
<svg id="Capa_1" data-name="Capa 1" xmlns="http://www.w3.org/2000/svg" xmlns:xlink="http://www.w3.org/1999/xlink" viewBox="0 0 48 48">
  <defs>
    <style>
      .cls-1 {
        fill: #fefefe;
      }

      .cls-1, .cls-2, .cls-3 {
        stroke-width: 0px;
      }

      .cls-2 {
        fill: #fb71c6;
      }

      .cls-3 {
        fill: url(#Degradado_sin_nombre_9);
      }
    </style>
    <linearGradient id="Degradado_sin_nombre_9" data-name="Degradado sin nombre 9" x1="0" y1="24" x2="48" y2="24" gradientUnits="userSpaceOnUse">
      <stop offset="0" stop-color="#2587f3"/>
      <stop offset=".52" stop-color="#12b6e0"/>
      <stop offset="1" stop-color="#09ccd5"/>
    </linearGradient>
  </defs>
  <rect class="cls-3" x="0" width="48" height="48"/>
  <g>
    <path class="cls-1" d="m30.38,22.97c-.01-1.3,0-2.6-.04-3.91-.01-.35-.03-.7-.06-1.06-.03-.41.2-.68.61-.68.53,0,1.07,0,1.6,0,.12,0,.22.02.32.1.42.33.89.29,1.34.1,1.13-.48,2.27-.61,3.44-.21,1.49.5,2.33,1.6,2.72,3.08.14.54.2,1.09.2,1.64,0,1.8,0,3.6,0,5.4,0,.76-.48,1.41-1.15,1.56-.86.19-1.89-.08-1.91-1.5-.02-1.3,0-2.6,0-3.91,0-.5,0-1.01,0-1.51,0-.3-.05-.59-.13-.88-.31-1.14-1.28-1.65-2.4-1.27-.84.28-1.47,1.14-1.47,2.04,0,1.81,0,3.62,0,5.44,0,.51-.19.95-.58,1.28-.75.65-2.03.34-2.41-.58-.05-.11-.06-.23-.06-.35,0-1.6,0-3.2,0-4.79Z"/>
    <path class="cls-1" d="m20.09,20.71c0-2.27,0-4.53,0-6.8,0-.78.55-1.42,1.32-1.52.76-.1,1.48.37,1.69,1.12.04.14.06.28.06.43,0,4.52,0,9.04,0,13.55,0,.8-.58,1.46-1.35,1.54-.79.09-1.49-.4-1.68-1.17-.03-.13-.03-.26-.03-.39,0-2.25,0-4.51,0-6.76Z"/>
    <path class="cls-1" d="m25.25,23.09c0-1.43,0-2.87,0-4.3,0-.85.51-1.39,1.37-1.46.97-.07,1.69.59,1.69,1.57,0,2.86,0,5.71,0,8.57,0,.62-.26,1.1-.81,1.39-.55.29-1.12.25-1.66-.07-.47-.28-.6-.75-.6-1.27,0-1.48,0-2.96,0-4.44Z"/>
    <path class="cls-2" d="m25.31,15.21c0-.85.69-1.53,1.54-1.52.84,0,1.52.69,1.52,1.53,0,.84-.69,1.54-1.54,1.53-.85,0-1.53-.69-1.52-1.54Z"/>
    <path class="cls-1" d="m18.61,21.28c-.26-1.2-.82-2.23-1.75-3.06-1.54-1.36-3.73-1.43-5.38-.66-.14.07-.28.14-.43.18-.32.09-.46.04-.64-.23-.09-.14-.2-.2-.36-.2-.58,0-1.16,0-1.74,0-.1,0-.2.02-.3.05-.33.09-.45.26-.45.6,0,.08,0,.15,0,.23-.09.06-.08.15-.07.24.03.6.06,1.19.06,1.79.01,3.56-.01,7.13.01,10.69,0,.4-.03.79.03,1.18.13.77.83,1.37,1.58,1.36.11,0,.21,0,.28-.11.83-.19,1.27-.88,1.25-1.66-.02-.76,0-1.52,0-2.28,0-.46.35-.69.78-.51.99.42,2,.49,3.05.27.83-.17,1.56-.55,2.22-1.07.57-.5,1.04-1.08,1.36-1.76.76-1.62.88-3.31.5-5.04Zm-3.26,3.9c-.45.99-1.29,1.49-2.41,1.44-.94-.04-1.77-.68-2.1-1.61-.09-.24-.12-.5-.13-.76,0-.32,0-.64,0-1.06,0-.48-.04-1.07.15-1.64.36-1.09,1.3-1.83,2.38-1.81.83.02,1.46.4,1.91,1.09.33.51.5,1.07.56,1.66.09.92.03,1.82-.36,2.68Z"/>
  </g>
</svg>