<?xml version="1.0" encoding="UTF-8"?>
<svg id="Capa_1" data-name="Capa 1" xmlns="http://www.w3.org/2000/svg" xmlns:xlink="http://www.w3.org/1999/xlink" viewBox="0 0 1080 1080">
  <defs>
    <style>
      .cls-1 {
        fill: url(#Degradado_sin_nombre_45-97);
      }

      .cls-1, .cls-2, .cls-3, .cls-4, .cls-5, .cls-6, .cls-7, .cls-8, .cls-9, .cls-10, .cls-11, .cls-12, .cls-13, .cls-14, .cls-15, .cls-16, .cls-17, .cls-18, .cls-19, .cls-20, .cls-21, .cls-22, .cls-23, .cls-24, .cls-25, .cls-26, .cls-27, .cls-28, .cls-29, .cls-30, .cls-31, .cls-32, .cls-33, .cls-34, .cls-35, .cls-36, .cls-37, .cls-38, .cls-39, .cls-40, .cls-41, .cls-42, .cls-43, .cls-44, .cls-45, .cls-46, .cls-47, .cls-48, .cls-49, .cls-50, .cls-51, .cls-52, .cls-53, .cls-54, .cls-55, .cls-56, .cls-57, .cls-58, .cls-59, .cls-60, .cls-61, .cls-62, .cls-63, .cls-64, .cls-65, .cls-66, .cls-67, .cls-68, .cls-69, .cls-70, .cls-71, .cls-72, .cls-73, .cls-74, .cls-75, .cls-76, .cls-77, .cls-78, .cls-79, .cls-80, .cls-81, .cls-82, .cls-83, .cls-84, .cls-85, .cls-86, .cls-87, .cls-88, .cls-89, .cls-90, .cls-91, .cls-92, .cls-93, .cls-94, .cls-95, .cls-96, .cls-97, .cls-98, .cls-99, .cls-100, .cls-101, .cls-102, .cls-103, .cls-104, .cls-105, .cls-106, .cls-107, .cls-108, .cls-109 {
        stroke-width: 0px;
      }

      .cls-2 {
        fill: url(#Degradado_sin_nombre_45-67);
      }

      .cls-3 {
        fill: url(#Degradado_sin_nombre_45-16);
      }

      .cls-4 {
        fill: url(#Degradado_sin_nombre_45-95);
      }

      .cls-5 {
        fill: url(#Degradado_sin_nombre_45-47);
      }

      .cls-6 {
        fill: url(#Degradado_sin_nombre_45-56);
      }

      .cls-7 {
        fill: url(#Degradado_sin_nombre_45-90);
      }

      .cls-8 {
        fill: url(#Degradado_sin_nombre_45-53);
      }

      .cls-9 {
        fill: url(#Degradado_sin_nombre_45-78);
      }

      .cls-10 {
        fill: url(#Degradado_sin_nombre_45-31);
      }

      .cls-11 {
        fill: url(#Degradado_sin_nombre_45-44);
      }

      .cls-12 {
        fill: url(#Degradado_sin_nombre_45-79);
      }

      .cls-13 {
        fill: url(#Degradado_sin_nombre_45-104);
      }

      .cls-14 {
        fill: url(#Degradado_sin_nombre_45-96);
      }

      .cls-15 {
        fill: url(#Degradado_sin_nombre_45-9);
      }

      .cls-16 {
        fill: url(#Degradado_sin_nombre_45-6);
      }

      .cls-17 {
        fill: url(#Degradado_sin_nombre_45-23);
      }

      .cls-18 {
        fill: url(#Degradado_sin_nombre_45-70);
      }

      .cls-19 {
        fill: url(#Degradado_sin_nombre_45-98);
      }

      .cls-20 {
        fill: url(#Degradado_sin_nombre_45-40);
      }

      .cls-21 {
        fill: url(#Degradado_sin_nombre_45-60);
      }

      .cls-22 {
        fill: url(#Degradado_sin_nombre_45-99);
      }

      .cls-23 {
        fill: url(#Degradado_sin_nombre_45-89);
      }

      .cls-24 {
        fill: url(#Degradado_sin_nombre_45-50);
      }

      .cls-25 {
        fill: url(#Degradado_sin_nombre_45-52);
      }

      .cls-26 {
        fill: url(#Degradado_sin_nombre_45-4);
      }

      .cls-27 {
        fill: url(#Degradado_sin_nombre_45-51);
      }

      .cls-28 {
        fill: url(#Degradado_sin_nombre_45-57);
      }

      .cls-29 {
        fill: url(#Degradado_sin_nombre_45-63);
      }

      .cls-30 {
        fill: url(#Degradado_sin_nombre_45-107);
      }

      .cls-31 {
        fill: url(#Degradado_sin_nombre_45-77);
      }

      .cls-32 {
        fill: url(#Degradado_sin_nombre_45-2);
      }

      .cls-33 {
        fill: url(#Degradado_sin_nombre_45-72);
      }

      .cls-34 {
        fill: url(#Degradado_sin_nombre_45-88);
      }

      .cls-35 {
        fill: url(#Degradado_sin_nombre_45-69);
      }

      .cls-36 {
        fill: url(#Degradado_sin_nombre_45-28);
      }

      .cls-37 {
        fill: url(#Degradado_sin_nombre_45-20);
      }

      .cls-38 {
        fill: url(#Degradado_sin_nombre_45-83);
      }

      .cls-39 {
        fill: url(#Degradado_sin_nombre_45-65);
      }

      .cls-40 {
        fill: url(#Degradado_sin_nombre_45-66);
      }

      .cls-41 {
        fill: url(#Degradado_sin_nombre_45-24);
      }

      .cls-42 {
        fill: url(#Degradado_sin_nombre_45-75);
      }

      .cls-43 {
        fill: url(#Degradado_sin_nombre_45-94);
      }

      .cls-44 {
        fill: url(#Degradado_sin_nombre_45-11);
      }

      .cls-45 {
        fill: url(#Degradado_sin_nombre_45-100);
      }

      .cls-46 {
        fill: url(#Degradado_sin_nombre_45-45);
      }

      .cls-47 {
        fill: url(#Degradado_sin_nombre_45-22);
      }

      .cls-48 {
        fill: url(#Degradado_sin_nombre_45);
      }

      .cls-49 {
        fill: url(#Degradado_sin_nombre_45-61);
      }

      .cls-50 {
        fill: url(#Degradado_sin_nombre_45-74);
      }

      .cls-51 {
        fill: url(#Degradado_sin_nombre_45-3);
      }

      .cls-52 {
        fill: url(#Degradado_sin_nombre_45-41);
      }

      .cls-53 {
        fill: url(#Degradado_sin_nombre_45-37);
      }

      .cls-54 {
        fill: url(#Degradado_sin_nombre_45-5);
      }

      .cls-55 {
        fill: url(#Degradado_sin_nombre_45-30);
      }

      .cls-56 {
        fill: url(#Degradado_sin_nombre_45-7);
      }

      .cls-57 {
        fill: url(#Degradado_sin_nombre_45-73);
      }

      .cls-58 {
        fill: url(#Degradado_sin_nombre_45-86);
      }

      .cls-59 {
        fill: url(#Degradado_sin_nombre_45-91);
      }

      .cls-60 {
        fill: url(#Degradado_sin_nombre_45-33);
      }

      .cls-61 {
        fill: url(#Degradado_sin_nombre_45-87);
      }

      .cls-62 {
        fill: url(#Degradado_sin_nombre_45-14);
      }

      .cls-63 {
        fill: url(#Degradado_sin_nombre_45-38);
      }

      .cls-64 {
        fill: url(#Degradado_sin_nombre_45-108);
      }

      .cls-65 {
        fill: url(#Degradado_sin_nombre_45-101);
      }

      .cls-66 {
        fill: url(#Degradado_sin_nombre_45-92);
      }

      .cls-67 {
        fill: url(#Degradado_sin_nombre_45-62);
      }

      .cls-68 {
        fill: url(#Degradado_sin_nombre_45-36);
      }

      .cls-69 {
        fill: url(#Degradado_sin_nombre_45-109);
      }

      .cls-70 {
        fill: url(#Degradado_sin_nombre_45-21);
      }

      .cls-71 {
        fill: url(#Degradado_sin_nombre_45-84);
      }

      .cls-72 {
        fill: url(#Degradado_sin_nombre_45-29);
      }

      .cls-73 {
        fill: url(#Degradado_sin_nombre_45-93);
      }

      .cls-74 {
        fill: url(#Degradado_sin_nombre_45-15);
      }

      .cls-75 {
        fill: url(#Degradado_sin_nombre_45-35);
      }

      .cls-76 {
        fill: url(#Degradado_sin_nombre_45-102);
      }

      .cls-77 {
        fill: url(#Degradado_sin_nombre_45-8);
      }

      .cls-78 {
        fill: url(#Degradado_sin_nombre_45-81);
      }

      .cls-79 {
        fill: url(#Degradado_sin_nombre_45-80);
      }

      .cls-80 {
        fill: url(#Degradado_sin_nombre_45-13);
      }

      .cls-81 {
        fill: url(#Degradado_sin_nombre_45-12);
      }

      .cls-82 {
        fill: url(#Degradado_sin_nombre_45-68);
      }

      .cls-83 {
        fill: url(#Degradado_sin_nombre_45-19);
      }

      .cls-84 {
        fill: url(#Degradado_sin_nombre_45-105);
      }

      .cls-85 {
        fill: url(#Degradado_sin_nombre_45-55);
      }

      .cls-86 {
        fill: url(#Degradado_sin_nombre_45-39);
      }

      .cls-87 {
        fill: url(#Degradado_sin_nombre_45-32);
      }

      .cls-88 {
        fill: url(#Degradado_sin_nombre_45-71);
      }

      .cls-89 {
        fill: url(#Degradado_sin_nombre_45-26);
      }

      .cls-90 {
        fill: url(#Degradado_sin_nombre_45-58);
      }

      .cls-91 {
        fill: url(#Degradado_sin_nombre_45-48);
      }

      .cls-92 {
        fill: url(#Degradado_sin_nombre_45-10);
      }

      .cls-93 {
        fill: url(#Degradado_sin_nombre_45-42);
      }

      .cls-94 {
        fill: url(#Degradado_sin_nombre_45-82);
      }

      .cls-95 {
        fill: url(#Degradado_sin_nombre_45-76);
      }

      .cls-96 {
        fill: url(#Degradado_sin_nombre_45-25);
      }

      .cls-97 {
        fill: url(#Degradado_sin_nombre_45-59);
      }

      .cls-98 {
        fill: url(#Degradado_sin_nombre_45-18);
      }

      .cls-99 {
        fill: url(#Degradado_sin_nombre_45-106);
      }

      .cls-100 {
        fill: url(#Degradado_sin_nombre_45-46);
      }

      .cls-101 {
        fill: url(#Degradado_sin_nombre_45-54);
      }

      .cls-102 {
        fill: url(#Degradado_sin_nombre_45-34);
      }

      .cls-103 {
        fill: url(#Degradado_sin_nombre_45-43);
      }

      .cls-104 {
        fill: url(#Degradado_sin_nombre_45-17);
      }

      .cls-105 {
        fill: url(#Degradado_sin_nombre_45-49);
      }

      .cls-106 {
        fill: url(#Degradado_sin_nombre_45-103);
      }

      .cls-107 {
        fill: url(#Degradado_sin_nombre_45-64);
      }

      .cls-108 {
        fill: url(#Degradado_sin_nombre_45-27);
      }

      .cls-109 {
        fill: url(#Degradado_sin_nombre_45-85);
      }
    </style>
    <linearGradient id="Degradado_sin_nombre_45" data-name="Degradado sin nombre 45" x1="510.3" y1="643.19" x2="552.99" y2="643.19" gradientUnits="userSpaceOnUse">
      <stop offset="0" stop-color="#151e6b"/>
      <stop offset=".5" stop-color="#2b328a"/>
      <stop offset="1" stop-color="#3d43a1"/>
    </linearGradient>
    <linearGradient id="Degradado_sin_nombre_45-2" data-name="Degradado sin nombre 45" x1="586.16" y1="641.19" x2="658.91" y2="641.19" xlink:href="#Degradado_sin_nombre_45"/>
    <linearGradient id="Degradado_sin_nombre_45-3" data-name="Degradado sin nombre 45" x1="682.56" x2="735.57" xlink:href="#Degradado_sin_nombre_45"/>
    <linearGradient id="Degradado_sin_nombre_45-4" data-name="Degradado sin nombre 45" x1="759.22" y1="641.19" x2="831.97" y2="641.19" xlink:href="#Degradado_sin_nombre_45"/>
    <linearGradient id="Degradado_sin_nombre_45-5" data-name="Degradado sin nombre 45" x1="869.95" y1="641.94" x2="943.7" y2="641.94" xlink:href="#Degradado_sin_nombre_45"/>
    <linearGradient id="Degradado_sin_nombre_45-6" data-name="Degradado sin nombre 45" x1="510.3" y1="453.02" x2="563.82" y2="453.02" xlink:href="#Degradado_sin_nombre_45"/>
    <linearGradient id="Degradado_sin_nombre_45-7" data-name="Degradado sin nombre 45" x1="569.58" y1="463.13" x2="628.23" y2="463.13" xlink:href="#Degradado_sin_nombre_45"/>
    <linearGradient id="Degradado_sin_nombre_45-8" data-name="Degradado sin nombre 45" x1="632.11" y1="452.29" x2="667.82" y2="452.29" xlink:href="#Degradado_sin_nombre_45"/>
    <linearGradient id="Degradado_sin_nombre_45-9" data-name="Degradado sin nombre 45" x1="670.66" y1="453.02" x2="704.48" y2="453.02" xlink:href="#Degradado_sin_nombre_45"/>
    <linearGradient id="Degradado_sin_nombre_45-10" data-name="Degradado sin nombre 45" x1="705.64" y1="464.7" x2="783.34" y2="464.7" xlink:href="#Degradado_sin_nombre_45"/>
    <linearGradient id="Degradado_sin_nombre_45-11" data-name="Degradado sin nombre 45" x1="783.25" y1="463.13" x2="840.74" y2="463.13" xlink:href="#Degradado_sin_nombre_45"/>
    <linearGradient id="Degradado_sin_nombre_45-12" data-name="Degradado sin nombre 45" x1="851.12" y1="462.55" x2="886.09" y2="462.55" xlink:href="#Degradado_sin_nombre_45"/>
    <linearGradient id="Degradado_sin_nombre_45-13" data-name="Degradado sin nombre 45" x1="889.03" y1="463.18" x2="943.7" y2="463.18" xlink:href="#Degradado_sin_nombre_45"/>
    <linearGradient id="Degradado_sin_nombre_45-14" data-name="Degradado sin nombre 45" x1="510.3" y1="544.24" x2="548.2" y2="544.24" xlink:href="#Degradado_sin_nombre_45"/>
    <linearGradient id="Degradado_sin_nombre_45-15" data-name="Degradado sin nombre 45" x1="555.73" y1="551.38" x2="594.09" y2="551.38" xlink:href="#Degradado_sin_nombre_45"/>
    <linearGradient id="Degradado_sin_nombre_45-16" data-name="Degradado sin nombre 45" x1="599.82" y1="560.08" x2="642.89" y2="560.08" xlink:href="#Degradado_sin_nombre_45"/>
    <linearGradient id="Degradado_sin_nombre_45-17" data-name="Degradado sin nombre 45" x1="649.64" y1="543.49" x2="662.98" y2="543.49" xlink:href="#Degradado_sin_nombre_45"/>
    <linearGradient id="Degradado_sin_nombre_45-18" data-name="Degradado sin nombre 45" x1="670.04" y1="551.38" x2="708.41" y2="551.38" xlink:href="#Degradado_sin_nombre_45"/>
    <linearGradient id="Degradado_sin_nombre_45-19" data-name="Degradado sin nombre 45" x1="714.14" y1="551.85" x2="755.09" y2="551.85" xlink:href="#Degradado_sin_nombre_45"/>
    <linearGradient id="Degradado_sin_nombre_45-20" data-name="Degradado sin nombre 45" x1="759.09" y1="551.85" x2="800.05" y2="551.85" xlink:href="#Degradado_sin_nombre_45"/>
    <linearGradient id="Degradado_sin_nombre_45-21" data-name="Degradado sin nombre 45" x1="805.78" y1="551.38" x2="831.98" y2="551.38" xlink:href="#Degradado_sin_nombre_45"/>
    <linearGradient id="Degradado_sin_nombre_45-22" data-name="Degradado sin nombre 45" x1="837" y1="543.49" x2="850.34" y2="543.49" xlink:href="#Degradado_sin_nombre_45"/>
    <linearGradient id="Degradado_sin_nombre_45-23" data-name="Degradado sin nombre 45" x1="857.4" y1="551.38" x2="895.76" y2="551.38" xlink:href="#Degradado_sin_nombre_45"/>
    <linearGradient id="Degradado_sin_nombre_45-24" data-name="Degradado sin nombre 45" x1="901.5" y1="560.08" x2="944.57" y2="560.08" xlink:href="#Degradado_sin_nombre_45"/>
    <linearGradient id="Degradado_sin_nombre_45-25" data-name="Degradado sin nombre 45" x1="354.33" y1="653.7" x2="361.23" y2="653.7" gradientTransform="translate(308.98 -89.9) rotate(24.94)" xlink:href="#Degradado_sin_nombre_45"/>
    <linearGradient id="Degradado_sin_nombre_45-26" data-name="Degradado sin nombre 45" x1="358.31" y1="618.69" x2="376.6" y2="618.69" gradientTransform="translate(444.15 -96.79) rotate(36.83)" xlink:href="#Degradado_sin_nombre_45"/>
    <linearGradient id="Degradado_sin_nombre_45-27" data-name="Degradado sin nombre 45" x1="399.69" y1="589.85" x2="422.05" y2="589.85" gradientTransform="translate(327.72 -124.17) rotate(28.22)" xlink:href="#Degradado_sin_nombre_45"/>
    <linearGradient id="Degradado_sin_nombre_45-28" data-name="Degradado sin nombre 45" x1="404.97" y1="565.6" x2="425.18" y2="565.6" gradientTransform="translate(536.1 -125.45) rotate(46.21)" xlink:href="#Degradado_sin_nombre_45"/>
    <linearGradient id="Degradado_sin_nombre_45-29" data-name="Degradado sin nombre 45" x1="407.29" y1="540.47" x2="423.84" y2="540.47" gradientTransform="translate(70.82 -47.71) rotate(7.18)" xlink:href="#Degradado_sin_nombre_45"/>
    <linearGradient id="Degradado_sin_nombre_45-30" data-name="Degradado sin nombre 45" x1="354.61" y1="563.79" x2="373.06" y2="563.79" gradientTransform="translate(399.8 -106.24) rotate(35.91)" xlink:href="#Degradado_sin_nombre_45"/>
    <linearGradient id="Degradado_sin_nombre_45-31" data-name="Degradado sin nombre 45" x1="307.33" y1="602.42" x2="324.03" y2="602.42" gradientTransform="translate(517.09 -47.19) rotate(44.88)" xlink:href="#Degradado_sin_nombre_45"/>
    <linearGradient id="Degradado_sin_nombre_45-32" data-name="Degradado sin nombre 45" x1="256.8" y1="611.25" x2="288.26" y2="611.25" gradientTransform="translate(827.64 237.42) rotate(80.07)" xlink:href="#Degradado_sin_nombre_45"/>
    <linearGradient id="Degradado_sin_nombre_45-33" data-name="Degradado sin nombre 45" x1="254.82" y1="585.15" x2="280.22" y2="585.15" gradientTransform="translate(528.76 -2.83) rotate(48.52)" xlink:href="#Degradado_sin_nombre_45"/>
    <linearGradient id="Degradado_sin_nombre_45-34" data-name="Degradado sin nombre 45" x1="252.1" y1="558.92" x2="281.01" y2="558.92" xlink:href="#Degradado_sin_nombre_45"/>
    <linearGradient id="Degradado_sin_nombre_45-35" data-name="Degradado sin nombre 45" x1="243.14" y1="522.28" x2="271.71" y2="522.28" gradientTransform="translate(475.62 -17.57) rotate(48.25)" xlink:href="#Degradado_sin_nombre_45"/>
    <linearGradient id="Degradado_sin_nombre_45-36" data-name="Degradado sin nombre 45" x1="300.8" y1="457.59" x2="318.14" y2="457.59" gradientTransform="translate(524.35 -51.31) rotate(56.96)" xlink:href="#Degradado_sin_nombre_45"/>
    <linearGradient id="Degradado_sin_nombre_45-37" data-name="Degradado sin nombre 45" x1="342.41" y1="510.16" x2="355.93" y2="510.16" gradientTransform="translate(637.92 -36.47) rotate(62.23)" xlink:href="#Degradado_sin_nombre_45"/>
    <linearGradient id="Degradado_sin_nombre_45-38" data-name="Degradado sin nombre 45" x1="311.32" y1="517.53" x2="334.6" y2="517.53" gradientTransform="translate(576.64 -37.26) rotate(56.54)" xlink:href="#Degradado_sin_nombre_45"/>
    <linearGradient id="Degradado_sin_nombre_45-39" data-name="Degradado sin nombre 45" x1="223.5" y1="519.81" x2="225.29" y2="519.81" xlink:href="#Degradado_sin_nombre_45"/>
    <linearGradient id="Degradado_sin_nombre_45-40" data-name="Degradado sin nombre 45" x1="223.52" y1="471.16" x2="230.85" y2="471.16" gradientTransform="translate(643 153.83) rotate(78.39)" xlink:href="#Degradado_sin_nombre_45"/>
    <linearGradient id="Degradado_sin_nombre_45-41" data-name="Degradado sin nombre 45" x1="187.85" y1="460.34" x2="224.86" y2="460.34" gradientTransform="translate(266.33 -40.56) rotate(30.97)" xlink:href="#Degradado_sin_nombre_45"/>
    <linearGradient id="Degradado_sin_nombre_45-42" data-name="Degradado sin nombre 45" x1="163.21" y1="579.73" x2="183.54" y2="579.73" gradientTransform="translate(350.56 1.15) rotate(33.68)" xlink:href="#Degradado_sin_nombre_45"/>
    <linearGradient id="Degradado_sin_nombre_45-43" data-name="Degradado sin nombre 45" x1="197.41" y1="603.63" x2="220.77" y2="603.63" xlink:href="#Degradado_sin_nombre_45"/>
    <linearGradient id="Degradado_sin_nombre_45-44" data-name="Degradado sin nombre 45" x1="165.32" y1="511.54" x2="189.89" y2="511.54" gradientTransform="translate(554.55 122.79) rotate(63.26)" xlink:href="#Degradado_sin_nombre_45"/>
    <linearGradient id="Degradado_sin_nombre_45-45" data-name="Degradado sin nombre 45" x1="165.97" y1="533.49" x2="187.21" y2="533.49" gradientTransform="translate(430.34 32.09) rotate(45.16)" xlink:href="#Degradado_sin_nombre_45"/>
    <linearGradient id="Degradado_sin_nombre_45-46" data-name="Degradado sin nombre 45" x1="272.42" y1="432.33" x2="318.09" y2="432.33" gradientTransform="translate(687.31 85.38) rotate(82.82)" xlink:href="#Degradado_sin_nombre_45"/>
    <linearGradient id="Degradado_sin_nombre_45-47" data-name="Degradado sin nombre 45" x1="387.96" y1="491.31" x2="415.52" y2="491.31" gradientTransform="translate(630.76 -100.58) rotate(60.43)" xlink:href="#Degradado_sin_nombre_45"/>
    <linearGradient id="Degradado_sin_nombre_45-48" data-name="Degradado sin nombre 45" x1="191.39" y1="555.46" x2="261.99" y2="555.46" xlink:href="#Degradado_sin_nombre_45"/>
    <linearGradient id="Degradado_sin_nombre_45-49" data-name="Degradado sin nombre 45" x1="252.8" y1="494.32" x2="323.4" y2="494.32" xlink:href="#Degradado_sin_nombre_45"/>
    <linearGradient id="Degradado_sin_nombre_45-50" data-name="Degradado sin nombre 45" x1="332.2" y1="477.89" x2="402.8" y2="477.89" xlink:href="#Degradado_sin_nombre_45"/>
    <linearGradient id="Degradado_sin_nombre_45-51" data-name="Degradado sin nombre 45" x1="128.32" y1="553.51" x2="179.95" y2="553.51" xlink:href="#Degradado_sin_nombre_45"/>
    <linearGradient id="Degradado_sin_nombre_45-52" data-name="Degradado sin nombre 45" x1="313.33" y1="581.28" x2="364.96" y2="581.28" xlink:href="#Degradado_sin_nombre_45"/>
    <linearGradient id="Degradado_sin_nombre_45-53" data-name="Degradado sin nombre 45" x1="364.96" y1="549.2" x2="416.59" y2="549.2" xlink:href="#Degradado_sin_nombre_45"/>
    <linearGradient id="Degradado_sin_nombre_45-54" data-name="Degradado sin nombre 45" x1="307.96" y1="435.19" x2="349.21" y2="435.19" xlink:href="#Degradado_sin_nombre_45"/>
    <linearGradient id="Degradado_sin_nombre_45-55" data-name="Degradado sin nombre 45" x1="211.56" y1="447.32" x2="252.8" y2="447.32" xlink:href="#Degradado_sin_nombre_45"/>
    <linearGradient id="Degradado_sin_nombre_45-56" data-name="Degradado sin nombre 45" x1="202.56" y1="494.32" x2="243.81" y2="494.32" xlink:href="#Degradado_sin_nombre_45"/>
    <linearGradient id="Degradado_sin_nombre_45-57" data-name="Degradado sin nombre 45" x1="326.26" y1="634.35" x2="367.5" y2="634.35" xlink:href="#Degradado_sin_nombre_45"/>
    <linearGradient id="Degradado_sin_nombre_45-58" data-name="Degradado sin nombre 45" x1="366.16" y1="603.63" x2="407.4" y2="603.63" xlink:href="#Degradado_sin_nombre_45"/>
    <linearGradient id="Degradado_sin_nombre_45-59" data-name="Degradado sin nombre 45" x1="267.48" y1="561.39" x2="308.72" y2="561.39" xlink:href="#Degradado_sin_nombre_45"/>
    <linearGradient id="Degradado_sin_nombre_45-60" data-name="Degradado sin nombre 45" x1="323.16" y1="529.68" x2="355.14" y2="529.68" xlink:href="#Degradado_sin_nombre_45"/>
    <linearGradient id="Degradado_sin_nombre_45-61" data-name="Degradado sin nombre 45" x1="402.8" y1="501.99" x2="434.79" y2="501.99" xlink:href="#Degradado_sin_nombre_45"/>
    <linearGradient id="Degradado_sin_nombre_45-62" data-name="Degradado sin nombre 45" x1="418.79" y1="535.36" x2="450.78" y2="535.36" xlink:href="#Degradado_sin_nombre_45"/>
    <linearGradient id="Degradado_sin_nombre_45-63" data-name="Degradado sin nombre 45" x1="283.07" y1="613.97" x2="315.05" y2="613.97" xlink:href="#Degradado_sin_nombre_45"/>
    <linearGradient id="Degradado_sin_nombre_45-64" data-name="Degradado sin nombre 45" x1="170.58" y1="600.13" x2="202.56" y2="600.13" xlink:href="#Degradado_sin_nombre_45"/>
    <linearGradient id="Degradado_sin_nombre_45-65" data-name="Degradado sin nombre 45" x1="142.42" y1="501.99" x2="174.4" y2="501.99" xlink:href="#Degradado_sin_nombre_45"/>
    <linearGradient id="Degradado_sin_nombre_45-66" data-name="Degradado sin nombre 45" x1="163.96" y1="474.29" x2="195.94" y2="474.29" xlink:href="#Degradado_sin_nombre_45"/>
    <linearGradient id="Degradado_sin_nombre_45-67" data-name="Degradado sin nombre 45" x1="252.1" y1="428.78" x2="278.34" y2="428.78" xlink:href="#Degradado_sin_nombre_45"/>
    <linearGradient id="Degradado_sin_nombre_45-68" data-name="Degradado sin nombre 45" x1="178.94" y1="518.38" x2="205.18" y2="518.38" xlink:href="#Degradado_sin_nombre_45"/>
    <linearGradient id="Degradado_sin_nombre_45-69" data-name="Degradado sin nombre 45" x1="416.59" y1="579.25" x2="442.83" y2="579.25" xlink:href="#Degradado_sin_nombre_45"/>
    <linearGradient id="Degradado_sin_nombre_45-70" data-name="Degradado sin nombre 45" x1="351.84" y1="667.65" x2="378.08" y2="667.65" xlink:href="#Degradado_sin_nombre_45"/>
    <linearGradient id="Degradado_sin_nombre_45-71" data-name="Degradado sin nombre 45" x1="238.98" y1="603.63" x2="265.22" y2="603.63" xlink:href="#Degradado_sin_nombre_45"/>
    <linearGradient id="Degradado_sin_nombre_45-72" data-name="Degradado sin nombre 45" x1="207.65" y1="610.11" x2="233.89" y2="610.11" xlink:href="#Degradado_sin_nombre_45"/>
    <linearGradient id="Degradado_sin_nombre_45-73" data-name="Degradado sin nombre 45" x1="268.94" y1="485.83" x2="307.26" y2="485.83" xlink:href="#Degradado_sin_nombre_45"/>
    <linearGradient id="Degradado_sin_nombre_45-74" data-name="Degradado sin nombre 45" x1="273.43" y1="491.23" x2="302.78" y2="491.23" xlink:href="#Degradado_sin_nombre_45"/>
    <linearGradient id="Degradado_sin_nombre_45-75" data-name="Degradado sin nombre 45" x1="277.9" y1="496.64" x2="298.32" y2="496.64" xlink:href="#Degradado_sin_nombre_45"/>
    <linearGradient id="Degradado_sin_nombre_45-76" data-name="Degradado sin nombre 45" x1="283.5" y1="506.39" x2="292.71" y2="506.39" xlink:href="#Degradado_sin_nombre_45"/>
    <linearGradient id="Degradado_sin_nombre_45-77" data-name="Degradado sin nombre 45" x1="209" y1="552.37" x2="227.4" y2="552.37" xlink:href="#Degradado_sin_nombre_45"/>
    <linearGradient id="Degradado_sin_nombre_45-78" data-name="Degradado sin nombre 45" x1="228" y1="549.94" x2="240.41" y2="549.94" xlink:href="#Degradado_sin_nombre_45"/>
    <linearGradient id="Degradado_sin_nombre_45-79" data-name="Degradado sin nombre 45" x1="224.82" y1="562.98" x2="237.23" y2="562.98" xlink:href="#Degradado_sin_nombre_45"/>
    <linearGradient id="Degradado_sin_nombre_45-80" data-name="Degradado sin nombre 45" x1="211.95" y1="494.32" x2="234.42" y2="494.32" xlink:href="#Degradado_sin_nombre_45"/>
    <linearGradient id="Degradado_sin_nombre_45-81" data-name="Degradado sin nombre 45" x1="288.6" y1="563.65" x2="299.75" y2="563.65" xlink:href="#Degradado_sin_nombre_45"/>
    <linearGradient id="Degradado_sin_nombre_45-82" data-name="Degradado sin nombre 45" x1="276.46" y1="563.66" x2="287.61" y2="563.66" xlink:href="#Degradado_sin_nombre_45"/>
    <linearGradient id="Degradado_sin_nombre_45-83" data-name="Degradado sin nombre 45" x1="292.13" y1="552.9" x2="296.23" y2="552.9" xlink:href="#Degradado_sin_nombre_45"/>
    <linearGradient id="Degradado_sin_nombre_45-84" data-name="Degradado sin nombre 45" x1="279.98" y1="552.9" x2="284.08" y2="552.9" xlink:href="#Degradado_sin_nombre_45"/>
    <linearGradient id="Degradado_sin_nombre_45-85" data-name="Degradado sin nombre 45" x1="333.88" y1="529.83" x2="344.18" y2="529.83" xlink:href="#Degradado_sin_nombre_45"/>
    <linearGradient id="Degradado_sin_nombre_45-86" data-name="Degradado sin nombre 45" x1="325.69" y1="577.12" x2="351.05" y2="577.12" xlink:href="#Degradado_sin_nombre_45"/>
    <linearGradient id="Degradado_sin_nombre_45-87" data-name="Degradado sin nombre 45" x1="329.3" y1="583.32" x2="347.44" y2="583.32" xlink:href="#Degradado_sin_nombre_45"/>
    <linearGradient id="Degradado_sin_nombre_45-88" data-name="Degradado sin nombre 45" x1="377.86" y1="549.18" x2="400.24" y2="549.18" xlink:href="#Degradado_sin_nombre_45"/>
    <linearGradient id="Degradado_sin_nombre_45-89" data-name="Degradado sin nombre 45" x1="385.76" y1="545.56" x2="403.69" y2="545.56" xlink:href="#Degradado_sin_nombre_45"/>
    <linearGradient id="Degradado_sin_nombre_45-90" data-name="Degradado sin nombre 45" x1="354.48" y1="480.41" x2="378.8" y2="480.41" xlink:href="#Degradado_sin_nombre_45"/>
    <linearGradient id="Degradado_sin_nombre_45-91" data-name="Degradado sin nombre 45" x1="356.76" y1="480.41" x2="358.05" y2="480.41" xlink:href="#Degradado_sin_nombre_45"/>
    <linearGradient id="Degradado_sin_nombre_45-92" data-name="Degradado sin nombre 45" x1="359.34" y1="480.41" x2="360.64" y2="480.41" xlink:href="#Degradado_sin_nombre_45"/>
    <linearGradient id="Degradado_sin_nombre_45-93" data-name="Degradado sin nombre 45" x1="361.93" y1="480.41" x2="363.23" y2="480.41" xlink:href="#Degradado_sin_nombre_45"/>
    <linearGradient id="Degradado_sin_nombre_45-94" data-name="Degradado sin nombre 45" x1="368.52" y1="480.41" x2="376.36" y2="480.41" xlink:href="#Degradado_sin_nombre_45"/>
    <linearGradient id="Degradado_sin_nombre_45-95" data-name="Degradado sin nombre 45" x1="354.48" y1="487.1" x2="378.8" y2="487.1" xlink:href="#Degradado_sin_nombre_45"/>
    <linearGradient id="Degradado_sin_nombre_45-96" data-name="Degradado sin nombre 45" x1="356.76" y1="487.1" x2="358.05" y2="487.1" xlink:href="#Degradado_sin_nombre_45"/>
    <linearGradient id="Degradado_sin_nombre_45-97" data-name="Degradado sin nombre 45" x1="359.34" y1="487.1" x2="360.64" y2="487.1" xlink:href="#Degradado_sin_nombre_45"/>
    <linearGradient id="Degradado_sin_nombre_45-98" data-name="Degradado sin nombre 45" x1="361.93" y1="487.1" x2="363.23" y2="487.1" xlink:href="#Degradado_sin_nombre_45"/>
    <linearGradient id="Degradado_sin_nombre_45-99" data-name="Degradado sin nombre 45" x1="368.52" y1="487.1" x2="376.36" y2="487.1" xlink:href="#Degradado_sin_nombre_45"/>
    <linearGradient id="Degradado_sin_nombre_45-100" data-name="Degradado sin nombre 45" x1="354.48" y1="493.8" x2="378.8" y2="493.8" xlink:href="#Degradado_sin_nombre_45"/>
    <linearGradient id="Degradado_sin_nombre_45-101" data-name="Degradado sin nombre 45" x1="356.76" y1="493.8" x2="358.05" y2="493.8" xlink:href="#Degradado_sin_nombre_45"/>
    <linearGradient id="Degradado_sin_nombre_45-102" data-name="Degradado sin nombre 45" x1="359.34" y1="493.8" x2="360.64" y2="493.8" xlink:href="#Degradado_sin_nombre_45"/>
    <linearGradient id="Degradado_sin_nombre_45-103" data-name="Degradado sin nombre 45" x1="361.93" y1="493.8" x2="363.23" y2="493.8" xlink:href="#Degradado_sin_nombre_45"/>
    <linearGradient id="Degradado_sin_nombre_45-104" data-name="Degradado sin nombre 45" x1="368.52" y1="493.8" x2="376.36" y2="493.8" xlink:href="#Degradado_sin_nombre_45"/>
    <linearGradient id="Degradado_sin_nombre_45-105" data-name="Degradado sin nombre 45" x1="348.03" y1="470.63" x2="385.53" y2="470.63" xlink:href="#Degradado_sin_nombre_45"/>
    <linearGradient id="Degradado_sin_nombre_45-106" data-name="Degradado sin nombre 45" x1="360.52" y1="472.22" x2="373.09" y2="472.22" xlink:href="#Degradado_sin_nombre_45"/>
    <linearGradient id="Degradado_sin_nombre_45-107" data-name="Degradado sin nombre 45" x1="363.57" y1="471.18" x2="365.09" y2="471.18" xlink:href="#Degradado_sin_nombre_45"/>
    <linearGradient id="Degradado_sin_nombre_45-108" data-name="Degradado sin nombre 45" x1="366.05" y1="471.18" x2="367.57" y2="471.18" xlink:href="#Degradado_sin_nombre_45"/>
    <linearGradient id="Degradado_sin_nombre_45-109" data-name="Degradado sin nombre 45" x1="368.52" y1="471.18" x2="370.04" y2="471.18" xlink:href="#Degradado_sin_nombre_45"/>
  </defs>
  <g>
    <path class="cls-48" d="m510.3,678.11v-69.84h15.43v55.81h27.26v14.03h-42.69Z"/>
    <path class="cls-32" d="m586.16,678.11l36.37-73.85,36.37,73.85h-16.43l-5.41-11.12h-29.16l-5.41,11.12h-16.33Zm27.45-24.25h17.74l-8.92-18.34-8.82,18.34Z"/>
    <path class="cls-51" d="m701.5,678.11v-55.81h-18.94v-14.03h53.01v14.03h-18.64v55.81h-15.43Z"/>
    <path class="cls-26" d="m759.22,678.11l36.37-73.85,36.37,73.85h-16.43l-5.41-11.12h-29.16l-5.41,11.12h-16.33Zm27.46-24.25h17.74l-8.92-18.34-8.82,18.34Z"/>
    <path class="cls-54" d="m869.95,678.11v-72.35l36.88,40.18,36.88-40.18v72.35h-14.83v-35.47l-22.05,24.75-22.04-24.75v35.47h-14.83Z"/>
  </g>
  <g>
    <path class="cls-16" d="m510.3,467.32c6.7,5.87,14.87,8.8,24.61,8.8,8.06,0,12.78-2.93,12.78-7.23,0-2.41-1.15-4.29-3.35-5.66-2.2-1.36-6.6-3.25-12.99-5.55-12.46-4.5-19.69-10.89-19.69-21.78,0-6.39,2.51-11.31,7.44-14.98,5.03-3.67,11.21-5.55,18.64-5.55s13.93,1.68,19.58,4.92v16.02c-5.03-4.08-11.31-6.18-18.96-6.18-6.7,0-10.47,2.3-10.47,5.66,0,2.09.94,3.67,3.77,5.34l3.56,1.78,4.82,1.88,4.61,1.78c7.02,2.83,11.94,5.87,14.77,9.11,2.93,3.25,4.4,7.64,4.4,13.2,0,12.88-9.84,21.78-28.17,21.78-9.32,0-17.8-2.2-25.34-6.6v-16.76Z"/>
    <path class="cls-56" d="m619.64,443.34c5.76,5.34,8.59,11.94,8.59,19.79s-2.83,14.45-8.59,19.9c-5.76,5.34-12.67,8.06-20.73,8.06s-15.08-2.72-20.84-8.06c-5.66-5.45-8.48-12.04-8.48-19.9s2.83-14.45,8.48-19.79c5.76-5.45,12.67-8.17,20.84-8.17s14.97,2.72,20.73,8.17Zm-30.47,29.64c2.62,2.62,5.86,3.98,9.74,3.98s7.12-1.36,9.74-3.98c2.62-2.72,3.98-5.97,3.98-9.84s-1.36-7.12-3.98-9.74c-2.62-2.72-5.86-4.08-9.74-4.08s-7.12,1.36-9.74,4.08c-2.62,2.62-3.98,5.86-3.98,9.74s1.36,7.23,3.98,9.84Z"/>
    <path class="cls-77" d="m640.8,489.52v-38.64h-8.69v-14.14h8.69v-1.47c0-7.64,2.09-13.09,6.18-16.34,3.04-2.62,7.96-3.88,14.56-3.88,2.09,0,4.19.21,6.28.52v12.99c-.94-.31-2.51-.52-4.71-.52-5.03,0-7.23,1.78-7.23,6.28v2.41h10.58v14.14h-10.58v38.64h-15.08Z"/>
    <path class="cls-15" d="m677.67,489.52v-38.64h-7.02v-14.14h7.02v-20.21h15.18v20.21h11.63v14.14h-11.63v38.64h-15.18Z"/>
    <path class="cls-92" d="m727.31,492.66l-21.68-55.92h15.29l9.43,25.34,14.14-25.13,14.14,25.13,9.43-25.34h15.29l-21.68,55.92-17.17-30.37-17.18,30.37Z"/>
    <path class="cls-44" d="m825.14,443.65v-6.91h15.6v52.78h-15.6v-6.91c-1.57,4.61-7.75,7.85-15.71,7.85-7.44,0-13.72-2.62-18.75-7.85-4.92-5.34-7.44-11.83-7.44-19.48s2.51-14.14,7.44-19.37c5.03-5.34,11.31-7.96,18.75-7.96,7.96,0,14.14,3.25,15.71,7.85Zm-3.14,28.9c2.72-2.62,4.08-5.76,4.08-9.43s-1.36-6.81-4.08-9.32c-2.62-2.62-5.86-3.88-9.74-3.88s-6.91,1.26-9.53,3.88c-2.62,2.51-3.88,5.66-3.88,9.32s1.26,6.81,3.88,9.43c2.62,2.51,5.76,3.77,9.53,3.77s7.12-1.26,9.74-3.77Z"/>
    <path class="cls-81" d="m851.12,489.52v-52.78h15.6v7.23c2.41-5.34,8.06-8.38,15.29-8.38,1.05,0,2.41.1,4.08.31v14.66c-1.57-.31-3.35-.52-5.24-.52-8.9,0-14.14,5.03-14.14,13.72v25.76h-15.6Z"/>
    <path class="cls-80" d="m889.03,463.03c0-8.27,2.62-14.87,7.85-19.9,5.34-5.13,12.04-7.64,20.11-7.64s14.35,2.62,19.27,7.75c4.92,5.13,7.44,11.42,7.44,18.96,0,1.78-.1,3.56-.31,5.13h-38.75c.31,6.28,5.66,10.26,13.93,10.26,7.54,0,13.82-1.68,18.75-5.13v13.61c-5.03,3.25-11.52,4.82-19.58,4.82-8.59,0-15.5-2.51-20.84-7.44-5.24-5.03-7.85-11.62-7.85-19.9v-.52Zm38.96-5.86c0-4.71-4.82-8.69-11-8.69-3.25,0-6.07.84-8.48,2.51-2.41,1.68-3.67,3.77-3.77,6.18h23.25Z"/>
  </g>
  <g>
    <path class="cls-62" d="m510.3,571.58v-54.68h37.34v10.98h-25.26v10.28h23.61v10.75h-23.61v11.69h25.81v10.98h-37.89Z"/>
    <path class="cls-74" d="m555.73,571.58v-39.54h11.69v4.94c1.65-3.45,6.12-5.81,11.53-5.81,9.65,0,15.14,6.12,15.14,16.4v24.01h-11.69v-22.59c0-4.63-2.59-7.45-7.22-7.45s-7.77,3.22-7.77,7.84v22.2h-11.69Z"/>
    <path class="cls-3" d="m605.39,537.29c3.76-4,8.47-5.96,14.04-5.96,5.96,0,10.59,2.43,11.77,5.88v-5.18h11.69v32.95c0,5.1-.39,9.18-1.26,12.08-.78,2.98-2.67,5.49-5.65,7.61-3.84,2.75-8.71,4.16-14.67,4.16-7.37,0-13.34-1.41-17.96-4.16v-10.51c3.84,3.22,9.1,4.87,15.69,4.87,3.92,0,6.91-.63,9.02-1.88,2.28-1.57,3.45-4.39,3.45-8.47v-1.65c-1.65,2.82-6.35,4.79-12.08,4.79s-10.28-1.88-14.04-5.73c-3.69-3.84-5.57-8.63-5.57-14.28s1.88-10.59,5.57-14.51Zm9.02,21.42c1.96,1.88,4.32,2.82,7.14,2.82s5.34-.94,7.3-2.82c2.04-1.88,3.06-4.16,3.06-6.91s-1.02-5.1-3.06-6.98c-1.96-1.96-4.39-2.9-7.3-2.9s-5.18.94-7.14,2.9c-1.96,1.88-2.9,4.24-2.9,6.98s.94,5.02,2.9,6.91Z"/>
    <path class="cls-104" d="m656.31,515.41c3.69,0,6.67,2.9,6.67,6.67s-2.98,6.59-6.67,6.59-6.67-2.9-6.67-6.59,2.98-6.67,6.67-6.67Zm-5.81,56.17v-39.54h11.69v39.54h-11.69Z"/>
    <path class="cls-98" d="m670.04,571.58v-39.54h11.69v4.94c1.65-3.45,6.12-5.81,11.53-5.81,9.65,0,15.14,6.12,15.14,16.4v24.01h-11.69v-22.59c0-4.63-2.59-7.45-7.22-7.45s-7.77,3.22-7.77,7.84v22.2h-11.69Z"/>
    <path class="cls-83" d="m714.14,551.73c0-6.2,1.96-11.14,5.88-14.91,4-3.84,9.02-5.73,15.06-5.73s10.75,1.96,14.44,5.81c3.69,3.84,5.57,8.55,5.57,14.2,0,1.33-.08,2.67-.24,3.84h-29.03c.24,4.71,4.24,7.69,10.43,7.69,5.65,0,10.36-1.26,14.04-3.84v10.2c-3.76,2.43-8.63,3.61-14.67,3.61-6.43,0-11.61-1.88-15.61-5.57-3.92-3.76-5.88-8.71-5.88-14.91v-.39Zm29.18-4.39c0-3.53-3.61-6.51-8.24-6.51-2.43,0-4.55.63-6.35,1.88-1.8,1.26-2.75,2.82-2.83,4.63h17.42Z"/>
    <path class="cls-37" d="m759.09,551.73c0-6.2,1.96-11.14,5.88-14.91,4-3.84,9.02-5.73,15.06-5.73s10.75,1.96,14.44,5.81c3.69,3.84,5.57,8.55,5.57,14.2,0,1.33-.08,2.67-.24,3.84h-29.03c.24,4.71,4.24,7.69,10.43,7.69,5.65,0,10.36-1.26,14.04-3.84v10.2c-3.76,2.43-8.63,3.61-14.67,3.61-6.43,0-11.61-1.88-15.61-5.57-3.92-3.76-5.88-8.71-5.88-14.91v-.39Zm29.18-4.39c0-3.53-3.61-6.51-8.24-6.51-2.43,0-4.55.63-6.35,1.88-1.8,1.26-2.75,2.82-2.83,4.63h17.42Z"/>
    <path class="cls-70" d="m805.78,571.58v-39.54h11.69v5.41c1.8-4,6.04-6.28,11.46-6.28.78,0,1.8.08,3.06.24v10.98c-1.18-.24-2.51-.39-3.92-.39-6.67,0-10.59,3.77-10.59,10.28v19.3h-11.69Z"/>
    <path class="cls-47" d="m843.67,515.41c3.69,0,6.67,2.9,6.67,6.67s-2.98,6.59-6.67,6.59-6.67-2.9-6.67-6.59,2.98-6.67,6.67-6.67Zm-5.81,56.17v-39.54h11.69v39.54h-11.69Z"/>
    <path class="cls-17" d="m857.4,571.58v-39.54h11.69v4.94c1.65-3.45,6.12-5.81,11.53-5.81,9.65,0,15.14,6.12,15.14,16.4v24.01h-11.69v-22.59c0-4.63-2.59-7.45-7.22-7.45s-7.77,3.22-7.77,7.84v22.2h-11.69Z"/>
    <path class="cls-41" d="m907.07,537.29c3.77-4,8.47-5.96,14.04-5.96,5.96,0,10.59,2.43,11.77,5.88v-5.18h11.69v32.95c0,5.1-.39,9.18-1.25,12.08-.79,2.98-2.67,5.49-5.65,7.61-3.84,2.75-8.71,4.16-14.67,4.16-7.37,0-13.34-1.41-17.97-4.16v-10.51c3.84,3.22,9.1,4.87,15.69,4.87,3.92,0,6.9-.63,9.02-1.88,2.28-1.57,3.45-4.39,3.45-8.47v-1.65c-1.65,2.82-6.35,4.79-12.08,4.79s-10.28-1.88-14.04-5.73c-3.69-3.84-5.57-8.63-5.57-14.28s1.88-10.59,5.57-14.51Zm9.02,21.42c1.96,1.88,4.31,2.82,7.14,2.82s5.33-.94,7.3-2.82c2.04-1.88,3.06-4.16,3.06-6.91s-1.02-5.1-3.06-6.98c-1.96-1.96-4.39-2.9-7.3-2.9s-5.18.94-7.14,2.9c-1.96,1.88-2.9,4.24-2.9,6.98s.94,5.02,2.9,6.91Z"/>
  </g>
  <g>
    <rect class="cls-96" x="356.88" y="647.45" width="1.79" height="12.51" transform="translate(-242.26 211.79) rotate(-24.94)"/>
    <rect class="cls-89" x="356.7" y="617.8" width="21.51" height="1.79" transform="translate(-297.51 343.69) rotate(-36.83)"/>
    <rect class="cls-108" x="398.66" y="588.95" width="24.41" height="1.79" transform="translate(-230.06 264.36) rotate(-28.22)"/>
    <rect class="cls-36" x="414.18" y="552.45" width="1.79" height="26.28" transform="translate(-280.45 473.8) rotate(-46.21)"/>
    <rect class="cls-72" x="407.33" y="539.57" width="16.46" height="1.79" transform="translate(-64.3 56.18) rotate(-7.18)"/>
    <rect class="cls-55" x="353.09" y="562.89" width="21.49" height="1.79" transform="translate(-261.51 320.53) rotate(-35.91)"/>
    <rect class="cls-10" x="304.79" y="601.52" width="21.78" height="1.79" transform="translate(-333.09 398.32) rotate(-44.88)"/>
    <rect class="cls-87" x="271.63" y="595.44" width="1.79" height="31.62" transform="translate(-376.55 774.32) rotate(-80.07)"/>
    <rect class="cls-60" x="249.37" y="584.26" width="36.3" height="1.79" transform="translate(-348.08 398.04) rotate(-48.52)"/>
    <rect class="cls-102" x="252.1" y="558.03" width="28.91" height="1.79"/>
    <rect class="cls-75" x="236.97" y="521.38" width="40.9" height="1.79" transform="translate(-303.63 366.51) rotate(-48.25)"/>
    <rect class="cls-68" x="294.94" y="456.7" width="29.05" height="1.79" transform="translate(-242.86 467.54) rotate(-56.96)"/>
    <rect class="cls-53" x="336.35" y="509.26" width="25.65" height="1.79" transform="translate(-264.91 581.46) rotate(-62.23)"/>
    <rect class="cls-63" x="322.07" y="504.16" width="1.79" height="26.72" transform="translate(-286.86 501.61) rotate(-56.54)"/>
    <rect class="cls-86" x="223.5" y="508.46" width="1.79" height="22.69"/>
    <rect class="cls-20" x="213.33" y="470.26" width="27.7" height="1.79" transform="translate(-280.05 598.91) rotate(-78.39)"/>
    <rect class="cls-52" x="185.32" y="459.45" width="42.07" height="1.79" transform="translate(-207.49 171.84) rotate(-30.97)"/>
    <rect class="cls-93" x="172.48" y="562.75" width="1.79" height="33.96" transform="translate(-292.36 193.43) rotate(-33.68)"/>
    <rect class="cls-103" x="197.41" y="602.74" width="23.37" height="1.79"/>
    <rect class="cls-11" x="176.71" y="498.24" width="1.79" height="26.61" transform="translate(-359.15 440.02) rotate(-63.26)"/>
    <rect class="cls-46" x="162.43" y="532.6" width="28.32" height="1.79" transform="translate(-326.21 282.51) rotate(-45.16)"/>
    <rect class="cls-100" x="294.36" y="409.42" width="1.79" height="45.8" transform="translate(-170.57 671.26) rotate(-82.82)"/>
    <rect class="cls-5" x="400.84" y="475.97" width="1.79" height="30.67" transform="translate(-223.84 598.22) rotate(-60.43)"/>
    <polygon class="cls-91" points="244.34 524.89 209.04 524.89 191.39 555.46 209.04 586.03 244.34 586.03 261.99 555.46 244.34 524.89"/>
    <polygon class="cls-105" points="305.75 463.75 270.45 463.75 252.8 494.32 270.45 524.89 305.75 524.89 323.4 494.32 305.75 463.75"/>
    <polygon class="cls-24" points="385.15 447.32 349.85 447.32 332.2 477.89 349.85 508.46 385.15 508.46 402.8 477.89 385.15 447.32"/>
    <polygon class="cls-27" points="167.04 531.15 141.23 531.15 128.32 553.51 141.23 575.86 167.04 575.86 179.95 553.51 167.04 531.15"/>
    <polygon class="cls-25" points="352.05 558.92 326.24 558.92 313.33 581.28 326.24 603.63 352.05 603.63 364.96 581.28 352.05 558.92"/>
    <polygon class="cls-8" points="403.68 526.85 377.87 526.85 364.96 549.2 377.87 571.56 403.68 571.56 416.59 549.2 403.68 526.85"/>
    <polygon class="cls-101" points="338.9 417.33 318.27 417.33 307.96 435.19 318.27 453.04 338.9 453.04 349.21 435.19 338.9 417.33"/>
    <polygon class="cls-85" points="242.49 429.47 221.87 429.47 211.56 447.32 221.87 465.18 242.49 465.18 252.8 447.32 242.49 429.47"/>
    <polygon class="cls-6" points="233.49 476.46 212.87 476.46 202.56 494.32 212.87 512.18 233.49 512.18 243.81 494.32 233.49 476.46"/>
    <polygon class="cls-28" points="357.19 616.49 336.57 616.49 326.26 634.35 336.57 652.21 357.19 652.21 367.5 634.35 357.19 616.49"/>
    <polygon class="cls-90" points="397.09 585.78 376.47 585.78 366.16 603.63 376.47 621.49 397.09 621.49 407.4 603.63 397.09 585.78"/>
    <polygon class="cls-97" points="298.41 543.53 277.79 543.53 267.48 561.39 277.79 579.25 298.41 579.25 308.72 561.39 298.41 543.53"/>
    <polygon class="cls-21" points="347.14 515.83 331.15 515.83 323.16 529.68 331.15 543.53 347.14 543.53 355.14 529.68 347.14 515.83"/>
    <polygon class="cls-49" points="426.79 488.14 410.8 488.14 402.8 501.99 410.8 515.83 426.79 515.83 434.79 501.99 426.79 488.14"/>
    <polygon class="cls-67" points="442.78 521.51 426.79 521.51 418.79 535.36 426.79 549.2 442.78 549.2 450.78 535.36 442.78 521.51"/>
    <polygon class="cls-29" points="307.06 600.13 291.06 600.13 283.07 613.97 291.06 627.82 307.06 627.82 315.05 613.97 307.06 600.13"/>
    <polygon class="cls-107" points="194.57 586.28 178.58 586.28 170.58 600.13 178.58 613.97 194.57 613.97 202.56 600.13 194.57 586.28"/>
    <polygon class="cls-39" points="166.41 488.14 150.41 488.14 142.42 501.99 150.41 515.83 166.41 515.83 174.4 501.99 166.41 488.14"/>
    <polygon class="cls-40" points="187.95 460.44 171.96 460.44 163.96 474.29 171.96 488.14 187.95 488.14 195.94 474.29 187.95 460.44"/>
    <polygon class="cls-2" points="271.78 417.41 258.66 417.41 252.1 428.78 258.66 440.14 271.78 440.14 278.34 428.78 271.78 417.41"/>
    <polygon class="cls-82" points="198.62 507.02 185.5 507.02 178.94 518.38 185.5 529.74 198.62 529.74 205.18 518.38 198.62 507.02"/>
    <polygon class="cls-35" points="436.27 567.89 423.15 567.89 416.59 579.25 423.15 590.61 436.27 590.61 442.83 579.25 436.27 567.89"/>
    <polygon class="cls-18" points="371.52 656.28 358.4 656.28 351.84 667.65 358.4 679.01 371.52 679.01 378.08 667.65 371.52 656.28"/>
    <polygon class="cls-88" points="258.66 592.27 245.54 592.27 238.98 603.63 245.54 615 258.66 615 265.22 603.63 258.66 592.27"/>
    <polygon class="cls-33" points="227.33 598.74 214.21 598.74 207.65 610.11 214.21 621.47 227.33 621.47 233.89 610.11 227.33 598.74"/>
  </g>
  <g>
    <path class="cls-57" d="m288.69,480.6c6.55.1,12.69,2.57,17.84,7.5.2.19.4.4.53.63.39.67.18,1.54-.43,2-.63.47-1.49.42-2.09-.17-1.43-1.4-2.99-2.63-4.72-3.64-8.93-5.25-20.44-3.86-27.87,3.35-.31.3-.7.59-1.11.72-.68.21-1.38-.16-1.71-.77-.33-.61-.25-1.37.29-1.86,1.01-.92,2.02-1.86,3.12-2.67,4.63-3.4,9.85-5.06,16.15-5.09Z"/>
    <path class="cls-50" d="m288.93,486.94c4.64.07,9.37,1.97,13.3,5.81.89.87.67,2.21-.44,2.64-.68.27-1.27.09-1.8-.42-2.31-2.26-5.02-3.82-8.19-4.47-5.92-1.22-11.12.27-15.53,4.41-.51.48-1.06.73-1.74.53-1.15-.33-1.49-1.76-.62-2.64,1.47-1.49,3.15-2.71,5.02-3.67,2.87-1.47,5.93-2.2,10-2.21Z"/>
    <path class="cls-42" d="m289.29,493.29c2.58.04,5.81,1.34,8.49,3.95.57.55.69,1.25.36,1.9-.31.61-.95.98-1.64.82-.36-.09-.73-.31-1.01-.57-3.93-3.67-9.78-3.97-13.93-.7-.33.26-.63.54-.94.82-.7.64-1.68.64-2.28,0-.61-.64-.57-1.6.1-2.28,2.45-2.5,6-3.95,10.85-3.95Z"/>
    <path class="cls-95" d="m283.5,506.42c-.01-2.58,2.03-4.63,4.61-4.63,2.54,0,4.58,2.04,4.6,4.59.01,2.56-2.01,4.62-4.55,4.62-2.61,0-4.64-2-4.65-4.58Z"/>
  </g>
  <g>
    <path class="cls-31" d="m227.4,551.67c-.08.99-.17,1.95-.25,2.95-.44-.03-.88-.03-1.31-.09-.22-.03-.34,0-.45.22-.36.73-.74,1.45-1.12,2.17-.08.15-.08.25.04.39.29.34.57.69.87,1.08-.75.63-1.48,1.26-2.25,1.91-.28-.33-.58-.64-.84-.98-.13-.17-.25-.2-.45-.14-.74.23-1.48.44-2.22.65-.24.07-.37.21-.39.47-.02.3-.06.6-.1.9-.03.23-.14.37-.42.35-.85-.08-1.7-.14-2.59-.21.04-.43.06-.84.12-1.25.04-.3-.1-.47-.35-.59-.7-.34-1.39-.67-2.08-1.02-.16-.08-.26-.06-.38.04-.34.29-.69.56-1.06.85-.64-.76-1.26-1.5-1.91-2.27.33-.28.64-.55.96-.8.17-.14.25-.26.17-.5-.21-.66-.4-1.34-.58-2.01-.1-.38-.32-.59-.73-.62-.36-.02-.72-.07-1.11-.1.09-1,.17-1.96.26-2.95.49.03.95.08,1.42.09.09,0,.24-.06.28-.14.4-.73.78-1.47,1.18-2.2.09-.17.1-.28-.04-.44-.31-.34-.58-.7-.89-1.07.75-.63,1.5-1.27,2.27-1.92.3.36.6.7.89,1.06.13.16.25.2.45.13.77-.26,1.55-.49,2.31-.76.1-.03.2-.17.22-.27.05-.31.06-.62.08-.93.02-.37.11-.48.47-.45.84.05,1.68.13,2.56.2-.03.39-.06.76-.09,1.13-.04.51-.04.51.43.75.62.32,1.24.65,1.84.99.2.11.34.12.52-.05.32-.3.67-.56,1.04-.87.63.75,1.26,1.49,1.92,2.27-.31.27-.62.53-.93.79-.24.2-.34.43-.23.75.21.62.41,1.24.61,1.87.1.33.3.51.65.53.38.03.77.07,1.17.11Zm-9.1,5.55c2.78-.03,4.87-2.39,4.71-5.14-.15-2.67-2.43-4.65-5.17-4.49-2.67.15-4.61,2.43-4.45,5.23.14,2.48,2.43,4.54,4.91,4.4Z"/>
    <path class="cls-9" d="m230.13,554.64c-.4-.48-.79-.93-1.16-1.39-.03-.04,0-.2.05-.24.66-.56.7-.79.35-1.56-.1-.2-.15-.43-.19-.66-.04-.23-.14-.31-.37-.32-.27,0-.53-.06-.8-.09.04-.56.07-1.08.1-1.59.03-.37.11-.43.48-.36.62.11.73.04.98-.57.08-.19.21-.36.32-.53.3-.42.3-.63-.03-1.03-.12-.14-.23-.29-.37-.46.53-.44,1.03-.87,1.56-1.31.18.49.43.83.96.78.18-.02.36-.09.54-.14.29-.09.58-.17.86-.27.08-.03.16-.11.21-.19.04-.08.04-.18.05-.28.08-.6.18-.7.78-.65.4.03.81.07,1.24.11,0,.32-.02.61,0,.9,0,.11.08.26.17.31.4.24.81.48,1.23.67.14.06.37.01.51-.07.22-.12.41-.31.62-.49.22.26.43.5.64.75.21.25.42.49.66.77-.23.2-.47.39-.69.61-.07.07-.12.22-.09.31.14.49.32.97.46,1.46.06.19.17.25.35.27.27.02.53.06.83.1-.06.62-.11,1.22-.18,1.82,0,.07-.19.17-.27.16-.56-.1-.92.13-1.15.63-.09.21-.26.39-.34.6-.2.51-.13.77.28,1.14.05.05.11.1.18.17-.53.45-1.05.89-1.55,1.32-.05-.03-.08-.04-.09-.05-.36-.72-.73-.84-1.47-.5-.25.12-.53.19-.8.25-.18.04-.24.11-.25.28-.01.23-.04.46-.09.68-.02.07-.13.19-.18.18-.6-.04-1.2-.11-1.83-.17.02-.29.04-.55.07-.81.02-.18-.02-.28-.19-.37-.45-.22-.89-.45-1.33-.7-.18-.1-.3-.08-.44.05-.2.17-.41.32-.64.51Zm4.08-7.94c-1.83,0-3.28,1.42-3.28,3.23,0,1.74,1.37,3.27,3.26,3.28,1.82,0,3.26-1.38,3.25-3.3-.01-1.93-1.45-3.19-3.22-3.21Z"/>
    <path class="cls-12" d="m224.98,561.51c.29,0,.57,0,.85,0,.21,0,.34-.03.41-.27.05-.21.17-.41.29-.58.53-.74.48-1.13-.27-1.7.53-.44,1.04-.88,1.57-1.32.21.23.4.46.61.65.08.07.23.12.33.1.44-.11.86-.25,1.29-.36.25-.07.37-.22.4-.46,0-.03.01-.06.02-.09.04-.22.01-.52.14-.63.12-.11.42-.02.64-.01.32.02.65.04.97.06.22.01.31.09.27.34-.11.61.09.95.64,1.19.35.15.69.33,1.08.52.25-.2.55-.43.86-.68.43.51.84,1,1.27,1.51-.23.21-.44.42-.67.6-.13.11-.16.2-.1.37.14.38.26.77.36,1.16.09.33.3.52.67.55.19.02.37,0,.61,0-.06.68-.11,1.32-.16,1.99-.29,0-.58-.02-.87,0-.11,0-.25.08-.31.17-.2.32-.37.65-.55.98-.28.53-.27.64.11,1.08q.29.33-.05.62c-.39.33-.78.66-1.18,1-.2-.21-.39-.4-.56-.61-.12-.15-.22-.18-.4-.12-.54.19-1.09.36-1.64.53-.05.36-.11.71-.16,1.06-.6-.04-1.17-.08-1.74-.12-.17,0-.2-.09-.19-.25.07-.85-.07-1.04-.9-1.34-.28-.1-.52-.3-.8-.46-.28.22-.56.44-.87.68-.42-.5-.84-.99-1.27-1.5.11-.09.21-.16.3-.24.42-.34.51-.73.3-1.23-.12-.3-.24-.6-.3-.92-.05-.22-.15-.26-.34-.28-.27-.02-.54-.06-.84-.09.05-.64.11-1.27.16-1.94Zm6.01,4.74c1.84,0,3.26-1.4,3.27-3.23.01-1.82-1.39-3.29-3.27-3.27-1.91.02-3.18,1.45-3.21,3.27-.03,1.8,1.42,3.23,3.21,3.23Z"/>
  </g>
  <path class="cls-79" d="m223.18,503.07c-3.42,0-6.83-.02-10.25.01-.85,0-1.21-.29-.84-1.34.53-1.51,1.15-2.99,1.77-4.47.26-.63.39-1.26.38-1.95-.02-2.96-.01-5.93,0-8.89,0-.75.11-.87.86-.87,5.4,0,10.8,0,16.21,0,.77,0,.87.11.87.9,0,3.14,0,6.28,0,9.42,0,.28.06.58.16.85.63,1.63,1.28,3.25,1.93,4.88.04.11.11.21.12.33.1.82.01,1.15-.87,1.15-3.45-.02-6.89,0-10.34,0Zm7.47-16.18h-14.92v8.73h14.92v-8.73Zm-5.3,14.51c-.14-.42-.25-.81-.4-1.19-.04-.09-.2-.19-.31-.19-.96-.02-1.93-.01-2.89,0-.1,0-.26.05-.29.11-.16.41-.28.83-.42,1.28h4.31Z"/>
  <g>
    <path class="cls-78" d="m297.23,561.3c.09.45.19.9.28,1.34.13.63.28,1.26.4,1.9.1.51-.1.73-.62.74-.19,0-.39,0-.62,0,0,.15,0,.27,0,.39,0,1.7,0,3.4,0,5.1,0,.77-.55,1.25-1.24,1.13-.52-.09-.86-.51-.86-1.08,0-1.71,0-3.42,0-5.13,0-.12,0-.24,0-.39h-.78v1.11c0,1.47,0,2.95,0,4.42,0,.62-.4,1.04-.99,1.08-.55.03-1-.34-1.08-.93-.02-.13-.02-.27-.02-.4,0-1.64,0-3.28,0-4.92v-.4c-.25,0-.47,0-.68,0-.45-.02-.66-.26-.57-.71.17-.82.35-1.63.52-2.44.06-.27.11-.54.11-.82-.25.54-.5,1.08-.74,1.62-.24.54-.73.75-1.2.54-.49-.22-.64-.75-.4-1.28.93-2.03,1.86-4.06,2.78-6.09.23-.5.56-.74,1.12-.73,1.05.02,2.1.01,3.15,0,.51,0,.85.19,1.06.67.92,2.04,1.87,4.08,2.79,6.12.34.76-.06,1.43-.8,1.38-.34-.02-.58-.2-.73-.5-.23-.48-.45-.97-.67-1.46-.05-.1-.1-.2-.14-.3-.02,0-.03.01-.05.02Z"/>
    <path class="cls-94" d="m279.48,560.07c-.39.85-.78,1.71-1.17,2.56-.06.14-.12.28-.19.41-.26.46-.72.63-1.15.42-.44-.21-.63-.67-.43-1.15.33-.77.69-1.53,1.03-2.3.6-1.31,1.2-2.61,1.79-3.92.2-.45.5-.7.98-.7,1.13,0,2.27,0,3.4,0,.47,0,.77.25.96.68.87,1.94,1.76,3.87,2.64,5.8.08.17.16.34.21.52.13.45-.08.92-.48,1.09-.41.18-.89.04-1.1-.4-.46-.93-.88-1.88-1.31-2.83-.03-.06-.06-.12-.11-.25-.03.1-.05.13-.05.17,0,2.2,0,4.4.01,6.59,0,1.31,0,2.62,0,3.93,0,.36-.05.7-.35.95-.32.27-.69.36-1.08.2-.4-.16-.66-.46-.66-.91,0-1.44,0-2.88,0-4.31,0-.66,0-1.33,0-2.01h-.79v.44c0,1.91,0,3.81,0,5.72,0,.65-.37,1.09-.94,1.14-.6.05-1.08-.33-1.13-.98-.06-.78-.04-1.56-.04-2.35,0-2.21.01-4.42.02-6.63,0-.63,0-1.25,0-1.88-.02,0-.05,0-.07-.01Z"/>
    <path class="cls-38" d="m296.23,552.88c.03,1.09-.88,2.05-1.98,2.07-1.16.03-2.12-.86-2.12-2.02,0-1.14.81-2.04,2.01-2.07,1.21-.03,2.07.91,2.09,2.02Z"/>
    <path class="cls-71" d="m284.08,552.9c0,1.12-.9,2.04-2.01,2.05-1.16.01-2.09-.9-2.1-2.04,0-1.12.94-2.06,2.05-2.06,1.13,0,2.05.91,2.06,2.05Z"/>
  </g>
  <path class="cls-109" d="m341.33,520.34s.02,0,.02,0c0,.87,0,1.74,0,2.61,0,.07.01.11.09.14.74.31,1.48.62,2.23.92.09.04.11.08.11.17,0,4.8,0,9.59,0,14.39,0,.04,0,.08,0,.13h.4v.61h-10.3v-.62h.4s0-.08,0-.11c0-.61,0-1.22,0-1.83,0-4.51,0-9.01,0-13.52,0-.08.02-.12.1-.15.78-.3,1.55-.61,2.33-.92,1.23-.49,2.46-.97,3.69-1.46.31-.12.62-.25.93-.38Zm1.51,12.71v-.77h-.77v.77h.77Zm-7.63,1.53h.77v-.77h-.77v.77Zm5.35.76h-.77v.77h.77v-.77Zm2.28-9.16h-.77v.77h.77v-.77Zm-2.28,8.4v-.77h-.76v.77h.76Zm-5.35-7.64h.77v-.77h-.77v.77Zm6.86,6.87v.77h.77v-.77h-.77Zm-6.09,2.3v-.77h-.76v.77h.76Zm4.58-9.93h-.77v.77h.77v-.77Zm-3.82,9.15v.77h.76v-.77h-.76Zm-.76-7.63h-.77v.77h.77v-.77Zm1.52.77v-.77h-.76v.77h.76Zm1.54-.77h-.77v.77h.77v-.77Zm1.53,0h-.77v.77h.77v-.77Zm2.28,0h-.77v.77h.77v-.77Zm-6.86,3.06h-.77v.77h.77v-.77Zm3.05,4.58h-.76v.77h.76v-.77Zm3.04,0v.77h.77v-.77h-.77Zm-6.09,2.3v-.77h-.77v.77h.77Zm4.58-.77h-.77v.77h.77v-.77Zm1.51.77h.77v-.77h-.77v.77Zm-4.57-6.1v-.77h-.76v.77h.76Zm.77,0h.77v-.77h-.77v.77Zm1.53-.77v.77h.76v-.77h-.76Zm2.27.77h.77v-.77h-.77v.77Zm-6.86,1.52h.77v-.77h-.77v.77Zm5.35,0v-.77h-.77v.77h.77Zm-3.82-6.88v.77h.76v-.77h-.76Zm2.29,0h-.77v.77h.77v-.77Zm-2.3,6.87h.76v-.77h-.76v.77Zm2.3-.77h-.77v.77h.77v-.77Zm-1.53,4.57c-.24,0-.48,0-.71,0-.02,0-.05.04-.05.06,0,.24,0,.47,0,.72h.77v-.77Zm1.53.78v-.77h-.76v.77h.76Zm-1.53-3.05v-.77h-.77c0,.24,0,.47,0,.71,0,.02.05.06.07.06.23,0,.46,0,.7,0Zm1.54-.77h-.77v.76h.77v-.76Zm-3.06-3.81v-.77h-.77v.77h.77Zm1.52-.77h-.76v.77h.76v-.77Zm1.53.77v-.77h-.76v.77h.76Zm.76,0h.77v-.77h-.77v.77Zm3.05-.77h-.77v.77h.77v-.77Zm-6.1-4.59v.77h.76v-.77h-.76Zm2.3,0h-.77v.77h.77v-.77Zm.75.77h.77v-.77h-.77v.77Zm-3.81-.76h-.77v.76h.77v-.76Zm6.09,0v.77h.77v-.77h-.77Z"/>
  <g>
    <path class="cls-58" d="m325.69,581.22c1.56-1.32,3.12-2.64,4.69-3.96,2.19-1.83,4.38-3.65,6.58-5.48.96-.8,1.88-.8,2.83,0,1.16.97,2.33,1.94,3.61,3.02,0-.85,0-1.59,0-2.32q0-1.25,1.24-1.25c.68,0,1.35,0,2.03,0,.63,0,.76.14.76.77,0,1.9-.01,3.79.02,5.69,0,.25.16.57.35.74,1.06.95,2.16,1.85,3.25,2.78v.34c-.31.38-.61.76-.93,1.12-.41.47-.61.48-1.08.09-1.84-1.54-3.69-3.08-5.53-4.62-1.7-1.42-3.4-2.83-5.14-4.28-1,.83-1.99,1.65-2.98,2.48-2.55,2.13-5.1,4.25-7.65,6.38-.53.44-.71.43-1.16-.09-.3-.35-.59-.72-.89-1.08,0-.11,0-.23,0-.34Z"/>
    <path class="cls-61" d="m338.37,575.27c2.02,1.66,4.02,3.31,6.01,4.95.91.75,1.83,1.49,2.73,2.27.17.15.31.43.31.65.02,2.33.02,4.66.01,6.98,0,.85-.39,1.24-1.24,1.24-1.91,0-3.82,0-5.8,0v-6.02h-4.04v6.02c-2.07,0-4.08.02-6.08,0-.57,0-.95-.45-.95-1.06-.01-2.42,0-4.84,0-7.27,0-.15.08-.34.19-.43,2.95-2.44,5.9-4.87,8.87-7.32Z"/>
  </g>
  <g>
    <path class="cls-34" d="m381.75,548.16c0-.51-.05-1.02,0-1.53.18-2.08,1.92-3.87,4.01-4.1,2.01-.22,3.56.56,4.65,2.26.09.14.17.12.28.09,2.02-.46,4.06.42,5.09,2.21.19.34.33.7.5,1.07.66-.02,1.3.12,1.9.43,1.56.81,2.37,2.58,1.97,4.31-.4,1.7-1.94,2.94-3.69,2.94-4.93,0-9.86,0-14.79,0-2,0-3.67-1.6-3.79-3.57-.12-2.04,1.33-3.81,3.32-4.07.2-.03.4-.03.56-.05Z"/>
    <path class="cls-23" d="m385.76,541.38c.2-.26.35-.51.54-.73,2.09-2.38,5.82-2.07,7.49.62.11.17.2.21.39.17,2.34-.52,4.68.82,5.42,3.1.05.14.09.19.26.2,1.8,0,3.32,1.24,3.73,2.99.39,1.7-.45,3.48-2.01,4.27-.06.03-.13.06-.2.09-.04-.33-.06-.65-.11-.96-.34-2.01-2.02-3.67-4.04-3.99-.16-.02-.24-.09-.31-.23-1.08-2.19-3.36-3.46-5.77-3.23-.07,0-.17-.03-.22-.08-1.31-1.58-2.98-2.32-5.04-2.2-.02,0-.05,0-.13,0Z"/>
  </g>
  <g>
    <g>
      <path class="cls-7" d="m378.8,483.15h-24.32v-5.49h24.32v5.49Zm-23.74-.57h23.17v-4.34h-23.17v4.34Z"/>
      <rect class="cls-59" x="356.76" y="479.76" width="1.3" height="1.3"/>
      <rect class="cls-66" x="359.34" y="479.76" width="1.3" height="1.3"/>
      <rect class="cls-73" x="361.93" y="479.76" width="1.3" height="1.3"/>
      <rect class="cls-43" x="368.52" y="479.76" width="7.84" height="1.3"/>
    </g>
    <g>
      <path class="cls-4" d="m378.8,489.85h-24.32v-5.48h24.32v5.48Zm-23.74-.57h23.17v-4.34h-23.17v4.34Z"/>
      <rect class="cls-14" x="356.76" y="486.46" width="1.3" height="1.3"/>
      <rect class="cls-1" x="359.34" y="486.46" width="1.3" height="1.3"/>
      <rect class="cls-19" x="361.93" y="486.46" width="1.3" height="1.3"/>
      <rect class="cls-22" x="368.52" y="486.46" width="7.84" height="1.3"/>
    </g>
    <g>
      <path class="cls-45" d="m378.8,496.54h-24.32v-5.49h24.32v5.49Zm-23.74-.57h23.17v-4.34h-23.17v4.34Z"/>
      <rect class="cls-65" x="356.76" y="493.15" width="1.3" height="1.3"/>
      <rect class="cls-76" x="359.34" y="493.15" width="1.3" height="1.3"/>
      <rect class="cls-106" x="361.93" y="493.15" width="1.3" height="1.3"/>
      <rect class="cls-13" x="368.52" y="493.15" width="7.84" height="1.3"/>
    </g>
    <path class="cls-84" d="m379.69,482.01c-.07,0-.13,0-.19,0l.02-.57c.78.02,2.29-.1,3.6-1.19,1.98-1.64,1.89-4.2,1.81-4.94-.07-.68-.25-2.47-1.72-3.5-.87-.62-1.83-.72-2.48-.69h-.33s.03-.31.03-.31c0-.08.19-2.03-1.33-3.28-1.34-1.1-2.91-.82-3.22-.75l-.24.06-.09-.23c-.9-2.38-1.05-2.69-1.06-2.7-.9-1.75-2.6-2.62-3.41-3.04-2.29-1.18-4.42-1.04-5.12-1-4.01.25-6.73,2.85-7.71,3.95l-.13.14-.18-.06c-.56-.19-2.55-.72-4.48.4-1.23.71-2.65,2.25-2.63,4.26,0,.77.24,1.54.66,2.25l.15.24-.24.15c-.62.38-2.12,1.48-2.63,3.54-.38,1.52-.16,3,.59,4.18,1.4,2.17,3.97,2.34,4.26,2.35l-.02.57c-.32-.01-3.16-.2-4.71-2.61-.84-1.31-1.08-2.95-.67-4.63.51-2.05,1.89-3.23,2.66-3.74-.39-.73-.59-1.52-.6-2.29-.03-2.26,1.55-3.98,2.91-4.77,1.96-1.13,3.97-.73,4.76-.5,1.12-1.22,3.91-3.75,7.98-4.01.74-.05,2.99-.19,5.41,1.06.87.45,2.67,1.37,3.66,3.29.01.02.15.3,1,2.53.63-.09,2.14-.17,3.46.91,1.4,1.16,1.56,2.77,1.55,3.47.71.02,1.65.19,2.52.8,1.68,1.18,1.88,3.17,1.95,3.91.08.81.18,3.61-2.02,5.44-1.35,1.12-2.89,1.32-3.79,1.32Z"/>
    <path class="cls-99" d="m366.77,476.96l-1.47-1.92-4.78.02v-7.57h12.57v7.57h-4.75l-1.57,1.9Zm-1.19-2.49l1.21,1.58,1.28-1.56h4.45v-6.42h-11.43v6.42l4.49-.02Z"/>
    <rect class="cls-30" x="363.57" y="470.42" width="1.52" height="1.52"/>
    <rect class="cls-64" x="366.05" y="470.42" width="1.52" height="1.52"/>
    <rect class="cls-69" x="368.52" y="470.42" width="1.52" height="1.52"/>
  </g>
</svg>