<?xml version="1.0" encoding="UTF-8"?>
<svg id="Capa_1" data-name="Capa 1" xmlns="http://www.w3.org/2000/svg" viewBox="0 0 48 48">
  <defs>
    <style>
      .cls-1 {
        fill: #3e9d85;
      }

      .cls-1, .cls-2, .cls-3, .cls-4, .cls-5, .cls-6, .cls-7, .cls-8 {
        stroke-width: 0px;
      }

      .cls-2 {
        fill: #52a363;
      }

      .cls-3 {
        fill: #66a940;
      }

      .cls-4 {
        fill: #fff;
      }

      .cls-5 {
        fill: #2996a7;
      }

      .cls-6 {
        fill: #1590ca;
      }

      .cls-7 {
        fill: #7ab01e;
      }

      .cls-8 {
        fill: #0189ec;
      }
    </style>
  </defs>
  <g>
    <path class="cls-8" d="m22.36,29.63v-3.46h.76v2.76h1.35v.69h-2.11Z"/>
    <path class="cls-8" d="m26.11,29.63l1.8-3.66,1.8,3.66h-.81l-.27-.55h-1.44l-.27.55h-.81Zm1.36-1.2h.88l-.44-.91-.44.91Z"/>
    <path class="cls-8" d="m31.82,29.63v-2.76h-.94v-.69h2.62v.69h-.92v2.76h-.76Z"/>
    <path class="cls-8" d="m34.68,29.63l1.8-3.66,1.8,3.66h-.81l-.27-.55h-1.44l-.27.55h-.81Zm1.36-1.2h.88l-.44-.91-.44.91Z"/>
    <path class="cls-8" d="m40.16,29.63v-3.58l1.83,1.99,1.83-1.99v3.58h-.73v-1.76l-1.09,1.23-1.09-1.23v1.76h-.73Z"/>
  </g>
  <g>
    <path class="cls-8" d="m22.36,19.19c.33.29.74.44,1.22.44.4,0,.63-.15.63-.36,0-.12-.06-.21-.17-.28-.11-.07-.33-.16-.64-.27-.62-.22-.97-.54-.97-1.08,0-.32.12-.56.37-.74.25-.18.55-.27.92-.27s.69.08.97.24v.79c-.25-.2-.56-.31-.94-.31-.33,0-.52.11-.52.28,0,.1.05.18.19.26l.18.09.24.09.23.09c.35.14.59.29.73.45.15.16.22.38.22.65,0,.64-.49,1.08-1.39,1.08-.46,0-.88-.11-1.25-.33v-.83Z"/>
    <path class="cls-8" d="m27.77,18.01c.29.26.43.59.43.98s-.14.72-.43.98c-.29.26-.63.4-1.03.4s-.75-.13-1.03-.4c-.28-.27-.42-.6-.42-.98s.14-.72.42-.98c.29-.27.63-.4,1.03-.4s.74.13,1.03.4Zm-1.51,1.47c.13.13.29.2.48.2s.35-.07.48-.2c.13-.13.2-.3.2-.49s-.07-.35-.2-.48c-.13-.13-.29-.2-.48-.2s-.35.07-.48.2c-.13.13-.2.29-.2.48s.07.36.2.49Z"/>
    <path class="cls-8" d="m28.82,20.29v-1.91h-.43v-.7h.43v-.07c0-.38.1-.65.31-.81.15-.13.39-.19.72-.19.1,0,.21.01.31.03v.64s-.12-.03-.23-.03c-.25,0-.36.09-.36.31v.12h.52v.7h-.52v1.91h-.75Z"/>
    <path class="cls-8" d="m30.64,20.29v-1.91h-.35v-.7h.35v-1h.75v1h.58v.7h-.58v1.91h-.75Z"/>
    <path class="cls-8" d="m33.1,20.45l-1.07-2.77h.76l.47,1.25.7-1.24.7,1.24.47-1.25h.76l-1.07,2.77-.85-1.5-.85,1.5Z"/>
    <path class="cls-8" d="m37.94,18.02v-.34h.77v2.61h-.77v-.34c-.08.23-.38.39-.78.39-.37,0-.68-.13-.93-.39-.24-.26-.37-.59-.37-.96s.12-.7.37-.96c.25-.26.56-.39.93-.39.39,0,.7.16.78.39Zm-.16,1.43c.13-.13.2-.29.2-.47s-.07-.34-.2-.46c-.13-.13-.29-.19-.48-.19s-.34.06-.47.19c-.13.12-.19.28-.19.46s.06.34.19.47c.13.12.29.19.47.19s.35-.06.48-.19Z"/>
    <path class="cls-8" d="m39.23,20.29v-2.61h.77v.36c.12-.26.4-.41.76-.41.05,0,.12,0,.2.02v.73c-.08-.02-.17-.03-.26-.03-.44,0-.7.25-.7.68v1.28h-.77Z"/>
    <path class="cls-8" d="m41.1,18.98c0-.41.13-.74.39-.98.26-.25.6-.38,1-.38s.71.13.95.38.37.56.37.94c0,.09,0,.18-.02.25h-1.92c.02.31.28.51.69.51.37,0,.68-.08.93-.25v.67c-.25.16-.57.24-.97.24-.43,0-.77-.12-1.03-.37-.26-.25-.39-.58-.39-.98v-.03Zm1.93-.29c0-.23-.24-.43-.54-.43-.16,0-.3.04-.42.12-.12.08-.18.19-.19.31h1.15Z"/>
  </g>
  <g>
    <path class="cls-8" d="m22.36,24.35v-2.71h1.85v.54h-1.25v.51h1.17v.53h-1.17v.58h1.28v.54h-1.88Z"/>
    <path class="cls-8" d="m24.61,24.35v-1.96h.58v.24c.08-.17.3-.29.57-.29.48,0,.75.3.75.81v1.19h-.58v-1.12c0-.23-.13-.37-.36-.37s-.38.16-.38.39v1.1h-.58Z"/>
    <path class="cls-8" d="m27.07,22.66c.19-.2.42-.3.69-.3.3,0,.52.12.58.29v-.26h.58v1.63c0,.25-.02.45-.06.6-.04.15-.13.27-.28.38-.19.14-.43.21-.73.21-.36,0-.66-.07-.89-.21v-.52c.19.16.45.24.78.24.19,0,.34-.03.45-.09.11-.08.17-.22.17-.42v-.08c-.08.14-.31.24-.6.24s-.51-.09-.69-.28c-.18-.19-.28-.43-.28-.71s.09-.52.28-.72Zm.45,1.06c.1.09.21.14.35.14s.26-.05.36-.14c.1-.09.15-.21.15-.34s-.05-.25-.15-.35c-.1-.1-.22-.14-.36-.14s-.26.05-.35.14c-.1.09-.14.21-.14.35s.05.25.14.34Z"/>
    <path class="cls-8" d="m29.59,21.57c.18,0,.33.14.33.33s-.15.33-.33.33-.33-.14-.33-.33.15-.33.33-.33Zm-.29,2.78v-1.96h.58v1.96h-.58Z"/>
    <path class="cls-8" d="m30.27,24.35v-1.96h.58v.24c.08-.17.3-.29.57-.29.48,0,.75.3.75.81v1.19h-.58v-1.12c0-.23-.13-.37-.36-.37s-.38.16-.38.39v1.1h-.58Z"/>
    <path class="cls-8" d="m32.45,23.37c0-.31.1-.55.29-.74.2-.19.45-.28.75-.28s.53.1.71.29.28.42.28.7c0,.07,0,.13-.01.19h-1.44c.01.23.21.38.52.38.28,0,.51-.06.69-.19v.5c-.19.12-.43.18-.73.18-.32,0-.57-.09-.77-.28-.19-.19-.29-.43-.29-.74v-.02Zm1.44-.22c0-.17-.18-.32-.41-.32-.12,0-.23.03-.31.09-.09.06-.14.14-.14.23h.86Z"/>
    <path class="cls-8" d="m34.67,23.37c0-.31.1-.55.29-.74.2-.19.45-.28.75-.28s.53.1.71.29.28.42.28.7c0,.07,0,.13-.01.19h-1.44c.01.23.21.38.52.38.28,0,.51-.06.69-.19v.5c-.19.12-.43.18-.73.18-.32,0-.57-.09-.77-.28-.19-.19-.29-.43-.29-.74v-.02Zm1.44-.22c0-.17-.18-.32-.41-.32-.12,0-.23.03-.31.09-.09.06-.14.14-.14.23h.86Z"/>
    <path class="cls-8" d="m36.98,24.35v-1.96h.58v.27c.09-.2.3-.31.57-.31.04,0,.09,0,.15.01v.54c-.06-.01-.12-.02-.19-.02-.33,0-.52.19-.52.51v.96h-.58Z"/>
    <path class="cls-8" d="m38.86,21.57c.18,0,.33.14.33.33s-.15.33-.33.33-.33-.14-.33-.33.15-.33.33-.33Zm-.29,2.78v-1.96h.58v1.96h-.58Z"/>
    <path class="cls-8" d="m39.54,24.35v-1.96h.58v.24c.08-.17.3-.29.57-.29.48,0,.75.3.75.81v1.19h-.58v-1.12c0-.23-.13-.37-.36-.37s-.38.16-.38.39v1.1h-.58Z"/>
    <path class="cls-8" d="m42,22.66c.19-.2.42-.3.7-.3.3,0,.52.12.58.29v-.26h.58v1.63c0,.25-.02.45-.06.6-.04.15-.13.27-.28.38-.19.14-.43.21-.73.21-.36,0-.66-.07-.89-.21v-.52c.19.16.45.24.78.24.19,0,.34-.03.45-.09.11-.08.17-.22.17-.42v-.08c-.08.14-.31.24-.6.24s-.51-.09-.7-.28c-.18-.19-.28-.43-.28-.71s.09-.52.28-.72Zm.45,1.06c.1.09.21.14.35.14s.26-.05.36-.14c.1-.09.15-.21.15-.34s-.05-.25-.15-.35c-.1-.1-.22-.14-.36-.14s-.26.05-.35.14c-.1.09-.14.21-.14.35s.05.25.14.34Z"/>
  </g>
  <g>
    <rect class="cls-8" x="14.77" y="28.11" width=".09" height=".62" transform="translate(-10.6 8.89) rotate(-24.94)"/>
    <rect class="cls-8" x="14.76" y="26.64" width="1.06" height=".09" transform="translate(-12.94 14.49) rotate(-36.83)"/>
    <rect class="cls-8" x="16.83" y="25.21" width="1.21" height=".09" transform="translate(-9.87 11.25) rotate(-28.22)"/>
    <rect class="cls-6" x="17.6" y="23.41" width=".09" height="1.3" transform="translate(-11.93 20.15) rotate(-46.21)"/>
    <rect class="cls-6" x="17.26" y="22.77" width=".81" height=".09" transform="translate(-2.71 2.39) rotate(-7.18)"/>
    <rect class="cls-6" x="14.58" y="23.92" width="1.06" height=".09" transform="translate(-11.19 13.42) rotate(-35.91)"/>
    <rect class="cls-5" x="12.19" y="25.84" width="1.08" height=".09" transform="translate(-14.55 16.52) rotate(-44.88)"/>
    <rect class="cls-5" x="10.55" y="25.54" width=".09" height="1.56" transform="translate(-17.16 32.21) rotate(-80.07)"/>
    <rect class="cls-5" x="9.45" y="24.98" width="1.8" height=".09" transform="translate(-15.26 16.2) rotate(-48.52)"/>
    <rect class="cls-1" x="9.58" y="23.68" width="1.43" height=".09"/>
    <rect class="cls-1" x="8.83" y="21.87" width="2.02" height=".09" transform="translate(-13.06 14.66) rotate(-48.25)"/>
    <rect class="cls-1" x="11.7" y="18.67" width="1.44" height=".09" transform="translate(-10.04 18.92) rotate(-56.96)"/>
    <rect class="cls-2" x="13.75" y="21.27" width="1.27" height=".09" transform="translate(-11.18 24.11) rotate(-62.23)"/>
    <rect class="cls-2" x="13.04" y="21.02" width=".09" height="1.32" transform="translate(-12.21 20.64) rotate(-56.54)"/>
    <rect class="cls-2" x="8.16" y="21.23" width=".09" height="1.12"/>
    <rect class="cls-2" x="7.66" y="19.34" width="1.37" height=".09" transform="translate(-12.32 23.66) rotate(-78.39)"/>
    <rect class="cls-3" x="6.28" y="18.8" width="2.08" height=".09" transform="translate(-8.66 6.45) rotate(-30.97)"/>
    <rect class="cls-7" x="5.64" y="23.92" width=".09" height="1.68" transform="translate(-12.77 7.31) rotate(-33.68)"/>
    <rect class="cls-7" x="6.87" y="25.9" width="1.16" height=".09"/>
    <rect class="cls-3" x="5.85" y="20.72" width=".09" height="1.32" transform="translate(-15.85 17.03) rotate(-63.26)"/>
    <rect class="cls-3" x="5.14" y="22.43" width="1.4" height=".09" transform="translate(-14.21 10.77) rotate(-45.16)"/>
    <rect class="cls-1" x="11.67" y="16.33" width=".09" height="2.27" transform="translate(-7.07 26.91) rotate(-82.82)"/>
    <rect class="cls-2" x="16.94" y="19.62" width=".09" height="1.52" transform="translate(-9.12 25.1) rotate(-60.43)"/>
    <polygon class="cls-5" points="9.2 22.04 7.45 22.04 6.58 23.56 7.45 25.07 9.2 25.07 10.07 23.56 9.2 22.04"/>
    <polygon class="cls-1" points="12.24 19.02 10.49 19.02 9.62 20.53 10.49 22.04 12.24 22.04 13.11 20.53 12.24 19.02"/>
    <polygon class="cls-2" points="16.17 18.2 14.42 18.2 13.55 19.72 14.42 21.23 16.17 21.23 17.04 19.72 16.17 18.2"/>
    <polygon class="cls-3" points="5.37 22.35 4.09 22.35 3.45 23.46 4.09 24.57 5.37 24.57 6.01 23.46 5.37 22.35"/>
    <polygon class="cls-6" points="14.53 23.73 13.25 23.73 12.61 24.83 13.25 25.94 14.53 25.94 15.17 24.83 14.53 23.73"/>
    <polygon class="cls-6" points="17.08 22.14 15.81 22.14 15.17 23.25 15.81 24.35 17.08 24.35 17.72 23.25 17.08 22.14"/>
    <polygon class="cls-1" points="13.88 16.72 12.86 16.72 12.35 17.6 12.86 18.49 13.88 18.49 14.39 17.6 13.88 16.72"/>
    <polygon class="cls-2" points="9.1 17.32 8.08 17.32 7.57 18.2 8.08 19.09 9.1 19.09 9.62 18.2 9.1 17.32"/>
    <polygon class="cls-2" points="8.66 19.65 7.64 19.65 7.13 20.53 7.64 21.41 8.66 21.41 9.17 20.53 8.66 19.65"/>
    <polygon class="cls-8" points="14.78 26.58 13.76 26.58 13.25 27.46 13.76 28.35 14.78 28.35 15.29 27.46 14.78 26.58"/>
    <polygon class="cls-8" points="16.76 25.06 15.74 25.06 15.23 25.94 15.74 26.82 16.76 26.82 17.27 25.94 16.76 25.06"/>
    <polygon class="cls-5" points="11.87 22.97 10.85 22.97 10.34 23.85 10.85 24.73 11.87 24.73 12.38 23.85 11.87 22.97"/>
    <polygon class="cls-2" points="14.28 21.6 13.49 21.6 13.1 22.28 13.49 22.97 14.28 22.97 14.68 22.28 14.28 21.6"/>
    <polygon class="cls-2" points="18.23 20.22 17.43 20.22 17.04 20.91 17.43 21.6 18.23 21.6 18.62 20.91 18.23 20.22"/>
    <polygon class="cls-6" points="19.02 21.88 18.23 21.88 17.83 22.56 18.23 23.25 19.02 23.25 19.41 22.56 19.02 21.88"/>
    <polygon class="cls-5" points="12.3 25.77 11.51 25.77 11.11 26.45 11.51 27.14 12.3 27.14 12.7 26.45 12.3 25.77"/>
    <polygon class="cls-7" points="6.73 25.08 5.94 25.08 5.55 25.77 5.94 26.45 6.73 26.45 7.13 25.77 6.73 25.08"/>
    <polygon class="cls-3" points="5.34 20.22 4.55 20.22 4.15 20.91 4.55 21.6 5.34 21.6 5.73 20.91 5.34 20.22"/>
    <polygon class="cls-3" points="6.41 18.85 5.61 18.85 5.22 19.54 5.61 20.22 6.41 20.22 6.8 19.54 6.41 18.85"/>
    <polygon class="cls-2" points="10.55 16.72 9.91 16.72 9.58 17.29 9.91 17.85 10.55 17.85 10.88 17.29 10.55 16.72"/>
    <polygon class="cls-3" points="6.93 21.16 6.28 21.16 5.96 21.72 6.28 22.28 6.93 22.28 7.26 21.72 6.93 21.16"/>
    <polygon class="cls-8" points="18.7 24.17 18.05 24.17 17.72 24.73 18.05 25.3 18.7 25.3 19.02 24.73 18.7 24.17"/>
    <polygon class="cls-8" points="15.49 28.55 14.84 28.55 14.52 29.11 14.84 29.67 15.49 29.67 15.82 29.11 15.49 28.55"/>
    <polygon class="cls-5" points="9.91 25.38 9.26 25.38 8.93 25.94 9.26 26.5 9.91 26.5 10.23 25.94 9.91 25.38"/>
    <polygon class="cls-7" points="8.35 25.7 7.71 25.7 7.38 26.26 7.71 26.82 8.35 26.82 8.68 26.26 8.35 25.7"/>
  </g>
  <g>
    <path class="cls-4" d="m11.39,19.85c.32,0,.63.13.88.37,0,0,.02.02.03.03.02.03,0,.08-.02.1-.03.02-.07.02-.1,0-.07-.07-.15-.13-.23-.18-.44-.26-1.01-.19-1.38.17-.02.02-.03.03-.05.04-.03.01-.07,0-.08-.04-.02-.03-.01-.07.01-.09.05-.05.1-.09.15-.13.23-.17.49-.25.8-.25Z"/>
    <path class="cls-4" d="m11.4,20.17c.23,0,.46.1.66.29.04.04.03.11-.02.13-.03.01-.06,0-.09-.02-.11-.11-.25-.19-.41-.22-.29-.06-.55.01-.77.22-.03.02-.05.04-.09.03-.06-.02-.07-.09-.03-.13.07-.07.16-.13.25-.18.14-.07.29-.11.49-.11Z"/>
    <path class="cls-4" d="m11.42,20.48c.13,0,.29.07.42.2.03.03.03.06.02.09-.02.03-.05.05-.08.04-.02,0-.04-.02-.05-.03-.19-.18-.48-.2-.69-.03-.02.01-.03.03-.05.04-.03.03-.08.03-.11,0-.03-.03-.03-.08,0-.11.12-.12.3-.2.54-.2Z"/>
    <path class="cls-4" d="m11.13,21.13c0-.13.1-.23.23-.23.13,0,.23.1.23.23,0,.13-.1.23-.23.23-.13,0-.23-.1-.23-.23Z"/>
  </g>
  <g>
    <path class="cls-4" d="m8.36,23.37s0,.1-.01.15c-.02,0-.04,0-.06,0-.01,0-.02,0-.02.01-.02.04-.04.07-.06.11,0,0,0,.01,0,.02.01.02.03.03.04.05-.04.03-.07.06-.11.09-.01-.02-.03-.03-.04-.05,0,0-.01,0-.02,0-.04.01-.07.02-.11.03-.01,0-.02.01-.02.02,0,.01,0,.03,0,.04,0,.01,0,.02-.02.02-.04,0-.08,0-.13-.01,0-.02,0-.04,0-.06,0-.02,0-.02-.02-.03-.03-.02-.07-.03-.1-.05,0,0-.01,0-.02,0-.02.01-.03.03-.05.04-.03-.04-.06-.07-.09-.11.02-.01.03-.03.05-.04,0,0,.01-.01,0-.02-.01-.03-.02-.07-.03-.1,0-.02-.02-.03-.04-.03-.02,0-.04,0-.05,0,0-.05,0-.1.01-.15.02,0,.05,0,.07,0,0,0,.01,0,.01,0,.02-.04.04-.07.06-.11,0,0,0-.01,0-.02-.02-.02-.03-.03-.04-.05.04-.03.07-.06.11-.09.02.02.03.03.04.05,0,0,.01,0,.02,0,.04-.01.08-.02.11-.04,0,0,.01,0,.01-.01,0-.02,0-.03,0-.05,0-.02,0-.02.02-.02.04,0,.08,0,.13,0,0,.02,0,.04,0,.06,0,.03,0,.03.02.04.03.02.06.03.09.05,0,0,.02,0,.03,0,.02-.01.03-.03.05-.04.03.04.06.07.1.11-.02.01-.03.03-.05.04-.01,0-.02.02-.01.04.01.03.02.06.03.09,0,.02.01.02.03.03.02,0,.04,0,.06,0Zm-.45.27c.14,0,.24-.12.23-.25,0-.13-.12-.23-.26-.22-.13,0-.23.12-.22.26,0,.12.12.22.24.22Z"/>
    <path class="cls-4" d="m8.49,23.52s-.04-.05-.06-.07c0,0,0,0,0-.01.03-.03.03-.04.02-.08,0-.01,0-.02,0-.03,0-.01,0-.02-.02-.02-.01,0-.03,0-.04,0,0-.03,0-.05,0-.08,0-.02,0-.02.02-.02.03,0,.04,0,.05-.03,0,0,.01-.02.02-.03.01-.02.01-.03,0-.05,0,0-.01-.01-.02-.02.03-.02.05-.04.08-.06,0,.02.02.04.05.04,0,0,.02,0,.03,0,.01,0,.03,0,.04-.01,0,0,0,0,.01,0,0,0,0,0,0-.01,0-.03,0-.03.04-.03.02,0,.04,0,.06,0,0,.02,0,.03,0,.04,0,0,0,.01,0,.02.02.01.04.02.06.03,0,0,.02,0,.03,0,.01,0,.02-.02.03-.02.01.01.02.02.03.04s.02.02.03.04c-.01,0-.02.02-.03.03,0,0,0,.01,0,.02,0,.02.02.05.02.07,0,0,0,.01.02.01.01,0,.03,0,.04,0,0,.03,0,.06,0,.09,0,0,0,0-.01,0-.03,0-.05,0-.06.03,0,.01-.01.02-.02.03-.01.03,0,.04.01.06,0,0,0,0,0,0-.03.02-.05.04-.08.07,0,0,0,0,0,0-.02-.04-.04-.04-.07-.02-.01,0-.03,0-.04.01,0,0-.01,0-.01.01,0,.01,0,.02,0,.03,0,0,0,0,0,0-.03,0-.06,0-.09,0,0-.01,0-.03,0-.04,0,0,0-.01,0-.02-.02-.01-.04-.02-.07-.03,0,0-.01,0-.02,0,0,0-.02.02-.03.03Zm.2-.39c-.09,0-.16.07-.16.16,0,.09.07.16.16.16.09,0,.16-.07.16-.16,0-.1-.07-.16-.16-.16Z"/>
    <path class="cls-4" d="m8.24,23.86s.03,0,.04,0c.01,0,.02,0,.02-.01,0-.01,0-.02.01-.03.03-.04.02-.06-.01-.08.03-.02.05-.04.08-.07.01.01.02.02.03.03,0,0,.01,0,.02,0,.02,0,.04-.01.06-.02.01,0,.02-.01.02-.02,0,0,0,0,0,0,0-.01,0-.03,0-.03,0,0,.02,0,.03,0,.02,0,.03,0,.05,0,.01,0,.02,0,.01.02,0,.03,0,.05.03.06.02,0,.03.02.05.03.01,0,.03-.02.04-.03.02.03.04.05.06.07-.01.01-.02.02-.03.03,0,0,0,.01,0,.02,0,.02.01.04.02.06,0,.02.01.03.03.03,0,0,.02,0,.03,0,0,.03,0,.07,0,.1-.01,0-.03,0-.04,0,0,0-.01,0-.02,0,0,.02-.02.03-.03.05-.01.03-.01.03,0,.05t0,.03s-.04.03-.06.05c0-.01-.02-.02-.03-.03,0,0-.01,0-.02,0-.03,0-.05.02-.08.03,0,.02,0,.04,0,.05-.03,0-.06,0-.09,0,0,0,0,0,0-.01,0-.04,0-.05-.04-.07-.01,0-.03-.01-.04-.02-.01.01-.03.02-.04.03-.02-.02-.04-.05-.06-.07,0,0,.01,0,.01-.01.02-.02.03-.04.02-.06,0-.01-.01-.03-.01-.05,0-.01,0-.01-.02-.01-.01,0-.03,0-.04,0,0-.03,0-.06,0-.1Zm.3.23c.09,0,.16-.07.16-.16,0-.09-.07-.16-.16-.16-.09,0-.16.07-.16.16,0,.09.07.16.16.16Z"/>
  </g>
  <path class="cls-4" d="m8.15,20.96c-.17,0-.34,0-.51,0-.04,0-.06-.01-.04-.07.03-.07.06-.15.09-.22.01-.03.02-.06.02-.1,0-.15,0-.29,0-.44,0-.04,0-.04.04-.04.27,0,.53,0,.8,0,.04,0,.04,0,.04.04,0,.16,0,.31,0,.47,0,.01,0,.03,0,.04.03.08.06.16.1.24,0,0,0,.01,0,.02,0,.04,0,.06-.04.06-.17,0-.34,0-.51,0Zm.37-.8h-.74v.43h.74v-.43Zm-.26.72s-.01-.04-.02-.06c0,0-.01,0-.02,0-.05,0-.1,0-.14,0,0,0-.01,0-.01,0,0,.02-.01.04-.02.06h.21Z"/>
  <g>
    <path class="cls-4" d="m11.81,23.85s0,.04.01.07c0,.03.01.06.02.09,0,.03,0,.04-.03.04,0,0-.02,0-.03,0,0,0,0,.01,0,.02,0,.08,0,.17,0,.25,0,.04-.03.06-.06.06-.03,0-.04-.03-.04-.05,0-.08,0-.17,0-.25,0,0,0-.01,0-.02h-.04v.06c0,.07,0,.15,0,.22,0,.03-.02.05-.05.05-.03,0-.05-.02-.05-.05,0,0,0-.01,0-.02,0-.08,0-.16,0-.24v-.02s-.02,0-.03,0c-.02,0-.03-.01-.03-.03,0-.04.02-.08.03-.12,0-.01,0-.03,0-.04-.01.03-.02.05-.04.08-.01.03-.04.04-.06.03-.02-.01-.03-.04-.02-.06.05-.1.09-.2.14-.3.01-.02.03-.04.06-.04.05,0,.1,0,.16,0,.03,0,.04,0,.05.03.05.1.09.2.14.3.02.04,0,.07-.04.07-.02,0-.03,0-.04-.02-.01-.02-.02-.05-.03-.07,0,0,0,0,0-.01,0,0,0,0,0,0Z"/>
    <path class="cls-4" d="m10.94,23.78s-.04.08-.06.13c0,0,0,.01,0,.02-.01.02-.04.03-.06.02-.02-.01-.03-.03-.02-.06.02-.04.03-.08.05-.11.03-.06.06-.13.09-.19,0-.02.02-.03.05-.03.06,0,.11,0,.17,0,.02,0,.04.01.05.03.04.1.09.19.13.29,0,0,0,.02.01.03,0,.02,0,.05-.02.05-.02,0-.04,0-.05-.02-.02-.05-.04-.09-.06-.14,0,0,0,0,0-.01,0,0,0,0,0,0,0,.11,0,.22,0,.33,0,.06,0,.13,0,.19,0,.02,0,.03-.02.05-.02.01-.03.02-.05,0-.02,0-.03-.02-.03-.04,0-.07,0-.14,0-.21,0-.03,0-.07,0-.1h-.04v.02c0,.09,0,.19,0,.28,0,.03-.02.05-.05.06-.03,0-.05-.02-.06-.05,0-.04,0-.08,0-.12,0-.11,0-.22,0-.33,0-.03,0-.06,0-.09,0,0,0,0,0,0Z"/>
    <path class="cls-4" d="m11.76,23.43c0,.05-.04.1-.1.1-.06,0-.11-.04-.11-.1,0-.06.04-.1.1-.1.06,0,.1.04.1.1Z"/>
    <path class="cls-4" d="m11.16,23.43c0,.06-.04.1-.1.1-.06,0-.1-.04-.1-.1,0-.06.05-.1.1-.1.06,0,.1.05.1.1Z"/>
  </g>
  <path class="cls-4" d="m14,21.82h0s0,.09,0,.13c0,0,0,0,0,0,.04.02.07.03.11.05,0,0,0,0,0,0,0,.24,0,.47,0,.71,0,0,0,0,0,0h.02v.03h-.51v-.03h.02s0,0,0,0c0-.03,0-.06,0-.09,0-.22,0-.45,0-.67,0,0,0,0,0,0,.04-.01.08-.03.12-.05.06-.02.12-.05.18-.07.02,0,.03-.01.05-.02Zm.07.63v-.04h-.04v.04h.04Zm-.38.08h.04v-.04h-.04v.04Zm.27.04h-.04v.04h.04v-.04Zm.11-.45h-.04v.04h.04v-.04Zm-.11.42v-.04h-.04v.04h.04Zm-.26-.38h.04v-.04h-.04v.04Zm.34.34v.04h.04v-.04h-.04Zm-.3.11v-.04h-.04v.04h.04Zm.23-.49h-.04v.04h.04v-.04Zm-.19.45v.04h.04v-.04h-.04Zm-.04-.38h-.04v.04h.04v-.04Zm.08.04v-.04h-.04v.04h.04Zm.08-.04h-.04v.04h.04v-.04Zm.08,0h-.04v.04h.04v-.04Zm.11,0h-.04v.04h.04v-.04Zm-.34.15h-.04v.04h.04v-.04Zm.15.23h-.04v.04h.04v-.04Zm.15,0v.04h.04v-.04h-.04Zm-.3.11v-.04h-.04v.04h.04Zm.23-.04h-.04v.04h.04v-.04Zm.07.04h.04v-.04h-.04v.04Zm-.23-.3v-.04h-.04v.04h.04Zm.04,0h.04v-.04h-.04v.04Zm.08-.04v.04h.04v-.04h-.04Zm.11.04h.04v-.04h-.04v.04Zm-.34.08h.04v-.04h-.04v.04Zm.26,0v-.04h-.04v.04h.04Zm-.19-.34v.04h.04v-.04h-.04Zm.11,0h-.04v.04h.04v-.04Zm-.11.34h.04v-.04h-.04v.04Zm.11-.04h-.04v.04h.04v-.04Zm-.08.23s-.02,0-.04,0c0,0,0,0,0,0,0,.01,0,.02,0,.04h.04v-.04Zm.08.04v-.04h-.04v.04h.04Zm-.08-.15v-.04h-.04s0,.02,0,.03c0,0,0,0,0,0,.01,0,.02,0,.03,0Zm.08-.04h-.04v.04h.04v-.04Zm-.15-.19v-.04h-.04v.04h.04Zm.08-.04h-.04v.04h.04v-.04Zm.08.04v-.04h-.04v.04h.04Zm.04,0h.04v-.04h-.04v.04Zm.15-.04h-.04v.04h.04v-.04Zm-.3-.23v.04h.04v-.04h-.04Zm.11,0h-.04v.04h.04v-.04Zm.04.04h.04v-.04h-.04v.04Zm-.19-.04h-.04v.04h.04v-.04Zm.3,0v.04h.04v-.04h-.04Z"/>
  <g>
    <path class="cls-4" d="m13.22,24.83c.08-.07.15-.13.23-.2.11-.09.22-.18.33-.27.05-.04.09-.04.14,0,.06.05.12.1.18.15,0-.04,0-.08,0-.11q0-.06.06-.06s.07,0,.1,0c.03,0,.04,0,.04.04,0,.09,0,.19,0,.28,0,.01,0,.03.02.04.05.05.11.09.16.14v.02s-.03.04-.05.06c-.02.02-.03.02-.05,0-.09-.08-.18-.15-.27-.23-.08-.07-.17-.14-.25-.21-.05.04-.1.08-.15.12-.13.11-.25.21-.38.32-.03.02-.04.02-.06,0-.02-.02-.03-.04-.04-.05,0,0,0-.01,0-.02Z"/>
    <path class="cls-4" d="m13.85,24.54c.1.08.2.16.3.25.05.04.09.07.13.11,0,0,.02.02.02.03,0,.12,0,.23,0,.35,0,.04-.02.06-.06.06-.09,0-.19,0-.29,0v-.3h-.2v.3c-.1,0-.2,0-.3,0-.03,0-.05-.02-.05-.05,0-.12,0-.24,0-.36,0,0,0-.02,0-.02.15-.12.29-.24.44-.36Z"/>
  </g>
  <g>
    <path class="cls-4" d="m16,23.2s0-.05,0-.08c0-.1.1-.19.2-.2.1-.01.18.03.23.11,0,0,0,0,.01,0,.1-.02.2.02.25.11,0,.02.02.03.02.05.03,0,.06,0,.09.02.08.04.12.13.1.21-.02.08-.1.15-.18.15-.24,0-.49,0-.73,0-.1,0-.18-.08-.19-.18,0-.1.07-.19.16-.2,0,0,.02,0,.03,0Z"/>
    <path class="cls-4" d="m16.2,22.86s.02-.03.03-.04c.1-.12.29-.1.37.03,0,0,0,.01.02,0,.12-.03.23.04.27.15,0,0,0,0,.01,0,.09,0,.16.06.18.15.02.08-.02.17-.1.21,0,0,0,0-.01,0,0-.02,0-.03,0-.05-.02-.1-.1-.18-.2-.2,0,0-.01,0-.02-.01-.05-.11-.17-.17-.29-.16,0,0,0,0-.01,0-.06-.08-.15-.11-.25-.11,0,0,0,0,0,0Z"/>
  </g>
  <g>
    <g>
      <path class="cls-4" d="m15.85,19.98h-1.2v-.27h1.2v.27Zm-1.18-.03h1.15v-.22h-1.15v.22Z"/>
      <rect class="cls-4" x="14.76" y="19.81" width=".06" height=".06"/>
      <rect class="cls-4" x="14.89" y="19.81" width=".06" height=".06"/>
      <rect class="cls-4" x="15.02" y="19.81" width=".06" height=".06"/>
      <rect class="cls-4" x="15.34" y="19.81" width=".39" height=".06"/>
    </g>
    <g>
      <path class="cls-4" d="m15.85,20.31h-1.2v-.27h1.2v.27Zm-1.18-.03h1.15v-.21h-1.15v.21Z"/>
      <rect class="cls-4" x="14.76" y="20.14" width=".06" height=".06"/>
      <rect class="cls-4" x="14.89" y="20.14" width=".06" height=".06"/>
      <rect class="cls-4" x="15.02" y="20.14" width=".06" height=".06"/>
      <rect class="cls-4" x="15.34" y="20.14" width=".39" height=".06"/>
    </g>
    <g>
      <path class="cls-4" d="m15.85,20.64h-1.2v-.27h1.2v.27Zm-1.18-.03h1.15v-.22h-1.15v.22Z"/>
      <rect class="cls-4" x="14.76" y="20.47" width=".06" height=".06"/>
      <rect class="cls-4" x="14.89" y="20.47" width=".06" height=".06"/>
      <rect class="cls-4" x="15.02" y="20.47" width=".06" height=".06"/>
      <rect class="cls-4" x="15.34" y="20.47" width=".39" height=".06"/>
    </g>
    <path class="cls-4" d="m15.9,19.92s0,0,0,0v-.03s.11,0,.18-.06c.1-.08.09-.21.09-.24,0-.03-.01-.12-.08-.17-.04-.03-.09-.04-.12-.03h-.02s0-.02,0-.02c0,0,0-.1-.07-.16-.07-.05-.14-.04-.16-.04h-.01s0,0,0,0c-.04-.12-.05-.13-.05-.13-.04-.09-.13-.13-.17-.15-.11-.06-.22-.05-.25-.05-.2.01-.33.14-.38.2h0s0,0,0,0c-.03,0-.13-.04-.22.02-.06.04-.13.11-.13.21,0,.04.01.08.03.11h0s-.01.02-.01.02c-.03.02-.1.07-.13.18-.02.08,0,.15.03.21.07.11.2.12.21.12v.03s-.16,0-.23-.13c-.04-.06-.05-.15-.03-.23.03-.1.09-.16.13-.19-.02-.04-.03-.08-.03-.11,0-.11.08-.2.14-.24.1-.06.2-.04.24-.02.06-.06.19-.19.39-.2.04,0,.15,0,.27.05.04.02.13.07.18.16,0,0,0,.01.05.13.03,0,.11,0,.17.05.07.06.08.14.08.17.04,0,.08,0,.12.04.08.06.09.16.1.19,0,.04,0,.18-.1.27-.07.06-.14.07-.19.07Z"/>
    <path class="cls-4" d="m15.26,19.67l-.07-.1h-.24s0-.37,0-.37h.62v.37h-.24l-.08.09Zm-.06-.12l.06.08.06-.08h.22v-.32h-.57v.32h.22Z"/>
    <rect class="cls-4" x="15.1" y="19.35" width=".08" height=".08"/>
    <rect class="cls-4" x="15.22" y="19.35" width=".08" height=".08"/>
    <rect class="cls-4" x="15.34" y="19.35" width=".08" height=".08"/>
  </g>
</svg>